<svg width="360" height="360" viewBox="0 0 360 360" fill="none" xmlns="http://www.w3.org/2000/svg">
<mask id="mask0" mask-type="alpha" maskUnits="userSpaceOnUse" x="5" y="5" width="349" height="349">
<circle cx="179.5" cy="179.5" r="174.5" fill="#F3F3F3"/>
</mask>
<g mask="url(#mask0)">
<circle cx="179.5" cy="179.5" r="174.5" fill="#DDE1E6" fill-opacity="0.4"/>
<rect x="305" y="77" width="204" height="204" rx="8" fill="url(#paint0_linear)"/>
<rect x="305" y="77" width="204" height="204" rx="8" fill="white" fill-opacity="0.8"/>
<rect x="305" y="303" width="40" height="13" rx="6.5" fill="#DDE1E6" fill-opacity="0.6"/>
<rect x="305" y="328" width="40" height="10" rx="5" fill="#DDE1E6" fill-opacity="0.4"/>
<circle cx="179.5" cy="179.5" r="174.5" fill="url(#paint1_linear)" fill-opacity="0.6"/>
<g filter="url(#filter0_f)">
<rect x="77" y="81" width="204" height="204" rx="8" fill="url(#paint2_linear)" fill-opacity="0.4"/>
</g>
<rect x="77" y="77" width="204" height="204" rx="8" fill="url(#paint3_linear)"/>
<g filter="url(#filter1_d)">
<path fill-rule="evenodd" clip-rule="evenodd" d="M211 296V272L228.4 289.412H217.83L217.604 289.598L211 296Z" fill="white"/>
<path fill-rule="evenodd" clip-rule="evenodd" d="M212.5 275.45V292.25L216.954 287.946L217.194 287.738L224.747 287.75L212.5 275.45Z" fill="#4F7FFF"/>
</g>
<path d="M182.109 173.266C181.224 169.984 179.922 167.094 178.203 164.594C176.484 162.042 174.375 159.88 171.875 158.109C169.375 156.339 166.51 155.01 163.281 154.125C160.052 153.187 156.51 152.719 152.656 152.719C144.896 152.719 138.177 154.594 132.5 158.344C126.875 162.094 122.526 167.562 119.453 174.75C116.38 181.885 114.844 190.557 114.844 200.766C114.844 211.026 116.328 219.776 119.297 227.016C122.266 234.255 126.563 239.776 132.188 243.578C137.813 247.38 144.635 249.281 152.656 249.281C159.74 249.281 165.729 248.135 170.625 245.844C175.573 243.5 179.323 240.193 181.875 235.922C184.427 231.651 185.703 226.625 185.703 220.844L192.891 221.703H153.984V193.5H222.969V214.672C222.969 228.995 219.922 241.26 213.828 251.469C207.786 261.677 199.453 269.516 188.828 274.984C178.255 280.453 166.094 283.187 152.344 283.187C137.083 283.187 123.672 279.88 112.109 273.266C100.547 266.651 91.5365 257.224 85.0781 244.984C78.6198 232.693 75.3906 218.109 75.3906 201.234C75.3906 188.109 77.3438 176.469 81.25 166.313C85.1563 156.104 90.599 147.458 97.5781 140.375C104.609 133.292 112.734 127.927 121.953 124.281C131.224 120.635 141.198 118.812 151.875 118.812C161.146 118.812 169.766 120.141 177.734 122.797C185.755 125.453 192.839 129.203 198.984 134.047C205.182 138.891 210.208 144.646 214.062 151.313C217.917 157.979 220.313 165.297 221.25 173.266H182.109Z" fill="url(#paint4_linear)" fill-opacity="0.1"/>
<path d="M108.651 213.139C108.485 212.602 108.256 212.122 107.964 211.697C107.679 211.267 107.335 210.899 106.93 210.594C106.533 210.289 106.075 210.06 105.558 209.908C105.041 209.749 104.478 209.669 103.868 209.669C102.774 209.669 101.8 209.944 100.945 210.494C100.089 211.045 99.4167 211.853 98.9261 212.92C98.4422 213.981 98.2003 215.274 98.2003 216.798C98.2003 218.336 98.4422 219.639 98.9261 220.706C99.41 221.773 100.083 222.585 100.945 223.142C101.806 223.692 102.807 223.967 103.947 223.967C104.982 223.967 105.876 223.768 106.632 223.371C107.394 222.973 107.981 222.41 108.392 221.68C108.803 220.945 109.009 220.083 109.009 219.095L109.844 219.224H104.315V216.341H112.578V218.787C112.578 220.53 112.207 222.038 111.464 223.311C110.722 224.584 109.701 225.565 108.402 226.254C107.103 226.937 105.611 227.278 103.928 227.278C102.052 227.278 100.404 226.857 98.9858 226.016C97.5739 225.167 96.4702 223.964 95.6747 222.406C94.8859 220.842 94.4915 218.986 94.4915 216.838C94.4915 215.194 94.7235 213.726 95.1875 212.433C95.6581 211.141 96.3144 210.044 97.1562 209.142C97.9981 208.234 98.9858 207.545 100.119 207.074C101.253 206.597 102.486 206.358 103.818 206.358C104.945 206.358 105.996 206.524 106.97 206.855C107.945 207.18 108.81 207.644 109.565 208.247C110.328 208.85 110.954 209.566 111.445 210.395C111.935 211.223 112.257 212.138 112.409 213.139H108.651ZM122.468 227.298C120.936 227.298 119.614 226.98 118.5 226.344C117.393 225.701 116.541 224.793 115.945 223.619C115.348 222.439 115.05 221.051 115.05 219.453C115.05 217.882 115.348 216.503 115.945 215.317C116.548 214.124 117.39 213.196 118.47 212.533C119.551 211.863 120.82 211.528 122.279 211.528C123.22 211.528 124.108 211.681 124.943 211.986C125.785 212.284 126.528 212.748 127.171 213.378C127.82 214.008 128.331 214.81 128.702 215.784C129.073 216.752 129.259 217.905 129.259 219.244V220.348H116.74V217.922H125.808C125.802 217.232 125.653 216.619 125.361 216.082C125.069 215.539 124.662 215.111 124.138 214.8C123.621 214.488 123.018 214.332 122.328 214.332C121.593 214.332 120.946 214.511 120.389 214.869C119.833 215.221 119.398 215.685 119.087 216.261C118.782 216.831 118.626 217.458 118.62 218.141V220.259C118.62 221.147 118.782 221.909 119.107 222.545C119.432 223.175 119.886 223.659 120.469 223.997C121.052 224.329 121.735 224.494 122.517 224.494C123.041 224.494 123.515 224.421 123.939 224.276C124.363 224.123 124.731 223.901 125.043 223.609C125.354 223.318 125.59 222.956 125.749 222.526L129.11 222.903C128.897 223.792 128.493 224.567 127.896 225.23C127.307 225.886 126.551 226.397 125.629 226.761C124.708 227.119 123.654 227.298 122.468 227.298ZM135.623 218.051V227H132.024V211.727H135.464V214.322H135.643C135.994 213.467 136.555 212.788 137.324 212.284C138.099 211.78 139.057 211.528 140.197 211.528C141.251 211.528 142.169 211.754 142.951 212.205C143.74 212.655 144.35 213.308 144.781 214.163C145.218 215.018 145.434 216.056 145.427 217.276V227H141.828V217.832C141.828 216.812 141.563 216.013 141.032 215.436C140.509 214.859 139.783 214.571 138.855 214.571C138.225 214.571 137.665 214.71 137.174 214.989C136.69 215.26 136.309 215.655 136.031 216.172C135.759 216.689 135.623 217.315 135.623 218.051ZM155.568 227.298C154.036 227.298 152.714 226.98 151.6 226.344C150.493 225.701 149.642 224.793 149.045 223.619C148.448 222.439 148.15 221.051 148.15 219.453C148.15 217.882 148.448 216.503 149.045 215.317C149.648 214.124 150.49 213.196 151.571 212.533C152.651 211.863 153.92 211.528 155.379 211.528C156.32 211.528 157.208 211.681 158.044 211.986C158.885 212.284 159.628 212.748 160.271 213.378C160.92 214.008 161.431 214.81 161.802 215.784C162.173 216.752 162.359 217.905 162.359 219.244V220.348H149.84V217.922H158.909C158.902 217.232 158.753 216.619 158.461 216.082C158.169 215.539 157.762 215.111 157.238 214.8C156.721 214.488 156.118 214.332 155.428 214.332C154.693 214.332 154.046 214.511 153.49 214.869C152.933 215.221 152.499 215.685 152.187 216.261C151.882 216.831 151.726 217.458 151.72 218.141V220.259C151.72 221.147 151.882 221.909 152.207 222.545C152.532 223.175 152.986 223.659 153.569 223.997C154.152 224.329 154.835 224.494 155.617 224.494C156.141 224.494 156.615 224.421 157.039 224.276C157.464 224.123 157.831 223.901 158.143 223.609C158.455 223.318 158.69 222.956 158.849 222.526L162.21 222.903C161.998 223.792 161.593 224.567 160.997 225.23C160.407 225.886 159.651 226.397 158.73 226.761C157.808 227.119 156.754 227.298 155.568 227.298ZM165.124 227V211.727H168.614V214.273H168.773C169.052 213.391 169.529 212.712 170.205 212.234C170.888 211.75 171.667 211.509 172.542 211.509C172.74 211.509 172.963 211.518 173.208 211.538C173.46 211.552 173.668 211.575 173.834 211.608V214.919C173.682 214.866 173.44 214.82 173.108 214.78C172.784 214.733 172.469 214.71 172.164 214.71C171.507 214.71 170.918 214.853 170.394 215.138C169.877 215.416 169.469 215.804 169.171 216.301C168.873 216.798 168.723 217.372 168.723 218.021V227H165.124ZM180.04 227.308C179.072 227.308 178.2 227.136 177.425 226.791C176.656 226.44 176.046 225.923 175.595 225.24C175.151 224.557 174.929 223.715 174.929 222.714C174.929 221.853 175.088 221.14 175.406 220.577C175.724 220.013 176.158 219.562 176.709 219.224C177.259 218.886 177.879 218.631 178.568 218.459C179.264 218.28 179.983 218.151 180.726 218.071C181.621 217.978 182.346 217.895 182.903 217.822C183.46 217.743 183.864 217.624 184.116 217.464C184.375 217.299 184.504 217.044 184.504 216.699V216.639C184.504 215.89 184.282 215.31 183.838 214.899C183.394 214.488 182.754 214.283 181.919 214.283C181.037 214.283 180.338 214.475 179.821 214.859C179.31 215.244 178.966 215.698 178.787 216.222L175.426 215.744C175.691 214.816 176.129 214.041 176.738 213.418C177.348 212.788 178.094 212.317 178.976 212.006C179.857 211.688 180.832 211.528 181.899 211.528C182.635 211.528 183.367 211.615 184.096 211.787C184.826 211.959 185.492 212.244 186.095 212.642C186.698 213.033 187.182 213.567 187.547 214.243C187.918 214.919 188.104 215.764 188.104 216.778V227H184.643V224.902H184.524C184.305 225.326 183.997 225.724 183.599 226.095C183.208 226.46 182.714 226.755 182.118 226.98C181.528 227.199 180.835 227.308 180.04 227.308ZM180.974 224.663C181.697 224.663 182.323 224.521 182.854 224.236C183.384 223.944 183.792 223.56 184.077 223.082C184.368 222.605 184.514 222.085 184.514 221.521V219.722C184.401 219.814 184.209 219.901 183.937 219.98C183.672 220.06 183.374 220.129 183.042 220.189C182.711 220.249 182.383 220.302 182.058 220.348C181.733 220.394 181.452 220.434 181.213 220.467C180.676 220.54 180.195 220.66 179.771 220.825C179.347 220.991 179.012 221.223 178.767 221.521C178.522 221.813 178.399 222.191 178.399 222.655C178.399 223.318 178.641 223.818 179.125 224.156C179.609 224.494 180.225 224.663 180.974 224.663ZM195.042 206.636V227H191.443V206.636H195.042ZM95.0085 259V238.636H108.253V241.729H98.6974V247.257H107.567V250.349H98.6974V255.908H108.332V259H95.0085ZM115.177 250.051V259H111.577V243.727H115.018V246.322H115.197C115.548 245.467 116.108 244.788 116.877 244.284C117.653 243.78 118.61 243.528 119.751 243.528C120.805 243.528 121.723 243.754 122.505 244.205C123.294 244.655 123.903 245.308 124.334 246.163C124.772 247.018 124.987 248.056 124.981 249.276V259H121.381V249.832C121.381 248.812 121.116 248.013 120.586 247.436C120.062 246.859 119.336 246.571 118.408 246.571C117.778 246.571 117.218 246.71 116.728 246.989C116.244 247.26 115.863 247.655 115.584 248.172C115.313 248.689 115.177 249.315 115.177 250.051ZM135.002 264.986C133.709 264.986 132.599 264.813 131.671 264.469C130.743 264.124 129.997 263.663 129.434 263.087C128.87 262.51 128.479 261.877 128.26 261.188L131.502 260.402C131.648 260.674 131.86 260.952 132.138 261.237C132.417 261.529 132.791 261.771 133.262 261.963C133.739 262.162 134.339 262.261 135.061 262.261C136.082 262.261 136.927 262.016 137.597 261.526C138.266 261.035 138.601 260.243 138.601 259.149V256.256H138.422C138.237 256.627 137.965 257.008 137.607 257.399C137.256 257.79 136.788 258.118 136.205 258.384C135.628 258.649 134.902 258.781 134.027 258.781C132.854 258.781 131.79 258.506 130.836 257.956C129.888 257.399 129.132 256.571 128.569 255.47C128.012 254.363 127.733 252.978 127.733 251.314C127.733 249.637 128.012 248.222 128.569 247.068C129.132 245.908 129.891 245.03 130.846 244.433C131.8 243.83 132.864 243.528 134.037 243.528C134.932 243.528 135.668 243.681 136.245 243.986C136.828 244.284 137.292 244.645 137.637 245.07C137.981 245.487 138.243 245.882 138.422 246.253H138.621V243.727H142.171V259.249C142.171 260.528 141.859 261.592 141.236 262.44C140.613 263.295 139.761 263.932 138.681 264.349C137.6 264.774 136.374 264.986 135.002 264.986ZM135.032 255.957C135.794 255.957 136.444 255.772 136.98 255.401C137.517 255.029 137.925 254.496 138.203 253.8C138.482 253.104 138.621 252.268 138.621 251.294C138.621 250.333 138.482 249.491 138.203 248.768C137.932 248.046 137.527 247.486 136.99 247.088C136.46 246.684 135.807 246.482 135.032 246.482C134.23 246.482 133.56 246.69 133.023 247.108C132.486 247.526 132.082 248.099 131.81 248.828C131.538 249.551 131.402 250.373 131.402 251.294C131.402 252.229 131.538 253.047 131.81 253.75C132.088 254.446 132.496 254.99 133.033 255.381C133.577 255.765 134.243 255.957 135.032 255.957ZM149.179 238.636V259H145.58V238.636H149.179ZM152.601 259V243.727H156.2V259H152.601ZM154.41 241.56C153.833 241.56 153.34 241.371 152.929 240.993C152.524 240.608 152.322 240.148 152.322 239.611C152.322 239.067 152.528 238.607 152.939 238.229C153.35 237.844 153.84 237.652 154.41 237.652C154.98 237.652 155.467 237.844 155.872 238.229C156.283 238.607 156.488 239.067 156.488 239.611C156.488 240.148 156.283 240.608 155.872 240.993C155.467 241.371 154.98 241.56 154.41 241.56ZM171.692 247.764L168.411 248.122C168.318 247.791 168.156 247.479 167.924 247.188C167.698 246.896 167.394 246.661 167.009 246.482C166.625 246.303 166.154 246.213 165.597 246.213C164.848 246.213 164.218 246.375 163.708 246.7C163.204 247.025 162.956 247.446 162.962 247.963C162.956 248.407 163.118 248.768 163.449 249.047C163.787 249.325 164.344 249.554 165.12 249.733L167.725 250.29C169.17 250.601 170.244 251.095 170.947 251.771C171.656 252.447 172.014 253.332 172.02 254.426C172.014 255.387 171.732 256.236 171.175 256.972C170.625 257.701 169.859 258.271 168.878 258.682C167.897 259.093 166.77 259.298 165.498 259.298C163.628 259.298 162.124 258.907 160.984 258.125C159.843 257.336 159.164 256.239 158.945 254.834L162.455 254.496C162.614 255.185 162.952 255.705 163.469 256.057C163.986 256.408 164.659 256.584 165.488 256.584C166.343 256.584 167.029 256.408 167.546 256.057C168.07 255.705 168.332 255.271 168.332 254.754C168.332 254.317 168.162 253.955 167.824 253.67C167.493 253.385 166.976 253.167 166.273 253.014L163.668 252.467C162.203 252.162 161.119 251.649 160.417 250.926C159.714 250.197 159.366 249.276 159.373 248.162C159.366 247.221 159.621 246.405 160.138 245.716C160.662 245.02 161.388 244.483 162.316 244.105C163.251 243.721 164.328 243.528 165.547 243.528C167.337 243.528 168.746 243.91 169.773 244.672C170.807 245.434 171.447 246.465 171.692 247.764ZM178.308 250.051V259H174.708V238.636H178.228V246.322H178.407C178.765 245.461 179.319 244.781 180.068 244.284C180.824 243.78 181.785 243.528 182.951 243.528C184.012 243.528 184.937 243.75 185.726 244.195C186.514 244.639 187.124 245.288 187.555 246.143C187.993 246.999 188.211 248.043 188.211 249.276V259H184.612V249.832C184.612 248.805 184.347 248.006 183.816 247.436C183.293 246.859 182.557 246.571 181.609 246.571C180.973 246.571 180.403 246.71 179.899 246.989C179.402 247.26 179.011 247.655 178.726 248.172C178.447 248.689 178.308 249.315 178.308 250.051Z" fill="white"/>
<path d="M87.5341 307C87.3935 306.57 87.2081 306.184 86.978 305.843C86.7521 305.498 86.4815 305.204 86.1662 304.961C85.8551 304.718 85.5014 304.533 85.1051 304.405C84.7088 304.277 84.2741 304.213 83.8011 304.213C83.0256 304.213 82.3203 304.413 81.6854 304.814C81.0504 305.214 80.5455 305.805 80.1705 306.585C79.7955 307.364 79.608 308.321 79.608 309.455C79.608 310.588 79.7976 311.545 80.1768 312.325C80.5561 313.104 81.0696 313.695 81.7173 314.095C82.3651 314.496 83.0938 314.696 83.9034 314.696C84.6534 314.696 85.3139 314.536 85.8849 314.217C86.4602 313.893 86.9077 313.437 87.2273 312.849C87.5511 312.256 87.7131 311.56 87.7131 310.759L88.1989 310.861H84.2614V309.455H89.2472V310.861C89.2472 311.939 89.017 312.876 88.5568 313.673C88.1009 314.47 87.4702 315.088 86.6648 315.527C85.8636 315.962 84.9432 316.179 83.9034 316.179C82.7443 316.179 81.7259 315.906 80.848 315.361C79.9744 314.815 79.2926 314.04 78.8026 313.034C78.3168 312.028 78.0739 310.835 78.0739 309.455C78.0739 308.419 78.2124 307.488 78.4893 306.661C78.7706 305.83 79.1669 305.123 79.6783 304.539C80.1896 303.955 80.7947 303.508 81.4936 303.197C82.1925 302.886 82.9616 302.73 83.8011 302.73C84.4915 302.73 85.1349 302.835 85.7315 303.043C86.3324 303.248 86.8672 303.54 87.3359 303.919C87.8089 304.294 88.2031 304.744 88.5185 305.268C88.8338 305.788 89.0511 306.365 89.1705 307H87.5341ZM95.6941 316.205C94.7481 316.205 93.932 315.996 93.246 315.578C92.5641 315.156 92.0379 314.568 91.6671 313.814C91.3006 313.055 91.1174 312.173 91.1174 311.168C91.1174 310.162 91.3006 309.276 91.6671 308.509C92.0379 307.737 92.5535 307.136 93.214 306.706C93.8788 306.271 94.6543 306.054 95.5407 306.054C96.0521 306.054 96.557 306.139 97.0556 306.31C97.5542 306.48 98.008 306.757 98.4171 307.141C98.8262 307.52 99.1522 308.023 99.3951 308.649C99.638 309.276 99.7595 310.047 99.7595 310.963V311.602H92.1913V310.298H98.2254C98.2254 309.744 98.1146 309.25 97.893 308.815C97.6756 308.381 97.3646 308.038 96.9597 307.786C96.5592 307.535 96.0862 307.409 95.5407 307.409C94.9399 307.409 94.42 307.558 93.981 307.857C93.5464 308.151 93.2119 308.534 92.9775 309.007C92.7431 309.48 92.6259 309.987 92.6259 310.528V311.398C92.6259 312.139 92.7538 312.768 93.0095 313.283C93.2694 313.795 93.6295 314.185 94.0897 314.453C94.5499 314.717 95.0847 314.849 95.6941 314.849C96.0904 314.849 96.4484 314.794 96.768 314.683C97.0918 314.568 97.371 314.398 97.6053 314.172C97.8397 313.942 98.0208 313.656 98.1487 313.315L99.606 313.724C99.4526 314.219 99.1948 314.653 98.8326 315.028C98.4704 315.399 98.0229 315.689 97.4903 315.898C96.9576 316.102 96.3589 316.205 95.6941 316.205ZM103.383 310.094V316H101.874V306.182H103.332V307.716H103.459C103.69 307.217 104.039 306.817 104.508 306.514C104.976 306.207 105.582 306.054 106.323 306.054C106.988 306.054 107.57 306.19 108.068 306.463C108.567 306.732 108.954 307.141 109.231 307.69C109.508 308.236 109.647 308.926 109.647 309.761V316H108.138V309.864C108.138 309.092 107.938 308.491 107.538 308.061C107.137 307.626 106.587 307.409 105.888 307.409C105.407 307.409 104.976 307.513 104.597 307.722C104.222 307.931 103.926 308.236 103.709 308.636C103.491 309.037 103.383 309.523 103.383 310.094ZM116.34 316.205C115.394 316.205 114.578 315.996 113.892 315.578C113.21 315.156 112.684 314.568 112.313 313.814C111.947 313.055 111.763 312.173 111.763 311.168C111.763 310.162 111.947 309.276 112.313 308.509C112.684 307.737 113.199 307.136 113.86 306.706C114.525 306.271 115.3 306.054 116.187 306.054C116.698 306.054 117.203 306.139 117.701 306.31C118.2 306.48 118.654 306.757 119.063 307.141C119.472 307.52 119.798 308.023 120.041 308.649C120.284 309.276 120.405 310.047 120.405 310.963V311.602H112.837V310.298H118.871C118.871 309.744 118.76 309.25 118.539 308.815C118.322 308.381 118.01 308.038 117.606 307.786C117.205 307.535 116.732 307.409 116.187 307.409C115.586 307.409 115.066 307.558 114.627 307.857C114.192 308.151 113.858 308.534 113.623 309.007C113.389 309.48 113.272 309.987 113.272 310.528V311.398C113.272 312.139 113.4 312.768 113.655 313.283C113.915 313.795 114.275 314.185 114.736 314.453C115.196 314.717 115.731 314.849 116.34 314.849C116.736 314.849 117.094 314.794 117.414 314.683C117.738 314.568 118.017 314.398 118.251 314.172C118.486 313.942 118.667 313.656 118.795 313.315L120.252 313.724C120.098 314.219 119.841 314.653 119.478 315.028C119.116 315.399 118.669 315.689 118.136 315.898C117.603 316.102 117.005 316.205 116.34 316.205ZM122.52 316V306.182H123.977V307.665H124.08C124.259 307.179 124.583 306.785 125.051 306.482C125.52 306.18 126.048 306.028 126.637 306.028C126.747 306.028 126.886 306.031 127.052 306.035C127.218 306.039 127.344 306.045 127.429 306.054V307.588C127.378 307.575 127.261 307.556 127.078 307.531C126.899 307.501 126.709 307.486 126.509 307.486C126.031 307.486 125.605 307.586 125.23 307.786C124.86 307.982 124.566 308.255 124.348 308.604C124.135 308.95 124.029 309.344 124.029 309.787V316H122.52ZM131.927 316.23C131.304 316.23 130.74 316.113 130.233 315.879C129.726 315.64 129.323 315.297 129.025 314.849C128.726 314.398 128.577 313.852 128.577 313.213C128.577 312.651 128.688 312.195 128.909 311.845C129.131 311.491 129.427 311.214 129.798 311.014C130.169 310.814 130.578 310.665 131.025 310.567C131.477 310.464 131.931 310.384 132.387 310.324C132.983 310.247 133.467 310.19 133.838 310.151C134.213 310.109 134.485 310.038 134.656 309.94C134.831 309.842 134.918 309.672 134.918 309.429V309.378C134.918 308.747 134.745 308.257 134.4 307.908C134.059 307.558 133.542 307.384 132.847 307.384C132.127 307.384 131.562 307.541 131.153 307.857C130.744 308.172 130.456 308.509 130.29 308.866L128.858 308.355C129.114 307.759 129.455 307.294 129.881 306.962C130.311 306.625 130.78 306.391 131.287 306.259C131.799 306.122 132.302 306.054 132.796 306.054C133.111 306.054 133.473 306.092 133.882 306.169C134.296 306.241 134.694 306.393 135.078 306.623C135.466 306.853 135.787 307.2 136.043 307.665C136.299 308.129 136.427 308.751 136.427 309.531V316H134.918V314.67H134.841C134.739 314.884 134.569 315.112 134.33 315.354C134.091 315.597 133.774 315.804 133.378 315.974C132.981 316.145 132.498 316.23 131.927 316.23ZM132.157 314.875C132.753 314.875 133.256 314.758 133.665 314.523C134.079 314.289 134.39 313.987 134.598 313.616C134.811 313.245 134.918 312.855 134.918 312.446V311.065C134.854 311.142 134.713 311.212 134.496 311.276C134.283 311.336 134.036 311.389 133.755 311.436C133.478 311.479 133.207 311.517 132.943 311.551C132.683 311.581 132.472 311.607 132.31 311.628C131.918 311.679 131.552 311.762 131.211 311.877C130.874 311.988 130.601 312.156 130.392 312.382C130.188 312.604 130.086 312.906 130.086 313.29C130.086 313.814 130.28 314.21 130.667 314.479C131.059 314.743 131.556 314.875 132.157 314.875ZM140.508 302.909V316H139V302.909H140.508ZM148.178 316V302.909H156.079V304.315H149.764V308.739H155.67V310.145H149.764V314.594H156.181V316H148.178ZM160.06 310.094V316H158.552V306.182H160.009V307.716H160.137C160.367 307.217 160.716 306.817 161.185 306.514C161.654 306.207 162.259 306.054 163.001 306.054C163.665 306.054 164.247 306.19 164.746 306.463C165.244 306.732 165.632 307.141 165.909 307.69C166.186 308.236 166.324 308.926 166.324 309.761V316H164.816V309.864C164.816 309.092 164.616 308.491 164.215 308.061C163.814 307.626 163.265 307.409 162.566 307.409C162.084 307.409 161.654 307.513 161.275 307.722C160.9 307.931 160.604 308.236 160.386 308.636C160.169 309.037 160.06 309.523 160.06 310.094ZM172.864 319.886C172.135 319.886 171.509 319.793 170.985 319.605C170.461 319.422 170.024 319.179 169.674 318.876C169.329 318.578 169.054 318.259 168.85 317.918L170.052 317.074C170.188 317.253 170.361 317.457 170.569 317.688C170.778 317.922 171.064 318.124 171.426 318.295C171.792 318.469 172.272 318.557 172.864 318.557C173.657 318.557 174.311 318.365 174.826 317.982C175.342 317.598 175.6 316.997 175.6 316.179V314.185H175.472C175.361 314.364 175.204 314.585 174.999 314.849C174.799 315.109 174.509 315.342 174.13 315.546C173.755 315.746 173.248 315.847 172.608 315.847C171.816 315.847 171.104 315.659 170.473 315.284C169.847 314.909 169.351 314.364 168.984 313.648C168.622 312.932 168.441 312.062 168.441 311.04C168.441 310.034 168.618 309.158 168.971 308.413C169.325 307.663 169.817 307.083 170.448 306.674C171.079 306.261 171.807 306.054 172.634 306.054C173.273 306.054 173.78 306.161 174.155 306.374C174.535 306.582 174.824 306.821 175.025 307.089C175.229 307.354 175.387 307.571 175.498 307.741H175.651V306.182H177.108V316.281C177.108 317.125 176.917 317.811 176.533 318.339C176.154 318.872 175.642 319.262 174.999 319.509C174.36 319.761 173.648 319.886 172.864 319.886ZM172.813 314.491C173.418 314.491 173.929 314.353 174.347 314.076C174.765 313.799 175.082 313.401 175.299 312.881C175.517 312.361 175.625 311.739 175.625 311.014C175.625 310.307 175.519 309.683 175.306 309.141C175.093 308.6 174.777 308.176 174.36 307.869C173.942 307.562 173.427 307.409 172.813 307.409C172.174 307.409 171.641 307.571 171.215 307.895C170.793 308.219 170.476 308.653 170.262 309.199C170.054 309.744 169.949 310.349 169.949 311.014C169.949 311.696 170.056 312.299 170.269 312.823C170.486 313.343 170.806 313.752 171.228 314.05C171.654 314.344 172.182 314.491 172.813 314.491ZM181.198 302.909V316H179.69V302.909H181.198ZM183.781 316V306.182H185.29V316H183.781ZM184.548 304.545C184.254 304.545 184.001 304.445 183.788 304.245C183.579 304.045 183.474 303.804 183.474 303.523C183.474 303.241 183.579 303.001 183.788 302.8C184.001 302.6 184.254 302.5 184.548 302.5C184.842 302.5 185.094 302.6 185.303 302.8C185.516 303.001 185.622 303.241 185.622 303.523C185.622 303.804 185.516 304.045 185.303 304.245C185.094 304.445 184.842 304.545 184.548 304.545ZM194.827 308.381L193.472 308.764C193.387 308.538 193.261 308.319 193.095 308.106C192.933 307.888 192.711 307.71 192.43 307.569C192.149 307.428 191.789 307.358 191.35 307.358C190.749 307.358 190.248 307.496 189.848 307.773C189.452 308.046 189.253 308.393 189.253 308.815C189.253 309.19 189.39 309.487 189.662 309.704C189.935 309.921 190.361 310.102 190.941 310.247L192.398 310.605C193.276 310.818 193.93 311.144 194.361 311.583C194.791 312.018 195.006 312.578 195.006 313.264C195.006 313.827 194.844 314.33 194.52 314.773C194.201 315.216 193.753 315.565 193.178 315.821C192.603 316.077 191.934 316.205 191.171 316.205C190.17 316.205 189.341 315.987 188.685 315.553C188.028 315.118 187.613 314.483 187.438 313.648L188.87 313.29C189.006 313.818 189.264 314.214 189.643 314.479C190.027 314.743 190.528 314.875 191.145 314.875C191.849 314.875 192.407 314.726 192.82 314.428C193.238 314.125 193.447 313.763 193.447 313.341C193.447 313 193.327 312.714 193.089 312.484C192.85 312.25 192.484 312.075 191.989 311.96L190.353 311.577C189.454 311.364 188.793 311.033 188.371 310.586C187.954 310.134 187.745 309.57 187.745 308.892C187.745 308.338 187.9 307.848 188.211 307.422C188.527 306.996 188.955 306.661 189.496 306.418C190.042 306.175 190.66 306.054 191.35 306.054C192.322 306.054 193.084 306.267 193.638 306.693C194.197 307.119 194.593 307.682 194.827 308.381ZM198.606 310.094V316H197.097V302.909H198.606V307.716H198.733C198.963 307.209 199.309 306.806 199.769 306.508C200.233 306.205 200.851 306.054 201.623 306.054C202.292 306.054 202.878 306.188 203.38 306.457C203.883 306.721 204.273 307.128 204.55 307.678C204.831 308.223 204.972 308.918 204.972 309.761V316H203.463V309.864C203.463 309.084 203.261 308.481 202.856 308.055C202.456 307.624 201.9 307.409 201.188 307.409C200.694 307.409 200.25 307.513 199.858 307.722C199.471 307.931 199.164 308.236 198.938 308.636C198.716 309.037 198.606 309.523 198.606 310.094Z" fill="black"/>
<path d="M86.4261 331H85.1932C85.1203 330.645 84.9927 330.334 84.8104 330.065C84.6314 329.797 84.4126 329.571 84.1541 329.389C83.8989 329.204 83.6155 329.064 83.304 328.972C82.9924 328.879 82.6676 328.832 82.3295 328.832C81.7131 328.832 81.1546 328.988 80.6541 329.3C80.157 329.611 79.7609 330.07 79.4659 330.677C79.1742 331.283 79.0284 332.027 79.0284 332.909C79.0284 333.791 79.1742 334.535 79.4659 335.141C79.7609 335.748 80.157 336.207 80.6541 336.518C81.1546 336.83 81.7131 336.986 82.3295 336.986C82.6676 336.986 82.9924 336.939 83.304 336.847C83.6155 336.754 83.8989 336.616 84.1541 336.434C84.4126 336.248 84.6314 336.021 84.8104 335.753C84.9927 335.481 85.1203 335.17 85.1932 334.818H86.4261C86.3333 335.339 86.1643 335.804 85.919 336.215C85.6738 336.626 85.3688 336.976 85.0043 337.264C84.6397 337.549 84.2304 337.766 83.7763 337.915C83.3255 338.065 82.8433 338.139 82.3295 338.139C81.4612 338.139 80.6889 337.927 80.0128 337.503C79.3366 337.079 78.8047 336.475 78.4169 335.693C78.0291 334.911 77.8352 333.983 77.8352 332.909C77.8352 331.835 78.0291 330.907 78.4169 330.125C78.8047 329.343 79.3366 328.74 80.0128 328.315C80.6889 327.891 81.4612 327.679 82.3295 327.679C82.8433 327.679 83.3255 327.754 83.7763 327.903C84.2304 328.052 84.6397 328.271 85.0043 328.559C85.3688 328.844 85.6738 329.192 85.919 329.603C86.1643 330.011 86.3333 330.476 86.4261 331ZM91.2217 338.159C90.5323 338.159 89.9274 337.995 89.4071 337.667C88.89 337.339 88.4857 336.88 88.194 336.29C87.9056 335.7 87.7615 335.01 87.7615 334.222C87.7615 333.426 87.9056 332.732 88.194 332.138C88.4857 331.545 88.89 331.085 89.4071 330.756C89.9274 330.428 90.5323 330.264 91.2217 330.264C91.9111 330.264 92.5143 330.428 93.0313 330.756C93.5517 331.085 93.9561 331.545 94.2444 332.138C94.5361 332.732 94.6819 333.426 94.6819 334.222C94.6819 335.01 94.5361 335.7 94.2444 336.29C93.9561 336.88 93.5517 337.339 93.0313 337.667C92.5143 337.995 91.9111 338.159 91.2217 338.159ZM91.2217 337.105C91.7454 337.105 92.1762 336.971 92.5143 336.702C92.8524 336.434 93.1026 336.081 93.265 335.643C93.4274 335.206 93.5086 334.732 93.5086 334.222C93.5086 333.711 93.4274 333.236 93.265 332.795C93.1026 332.354 92.8524 331.998 92.5143 331.726C92.1762 331.454 91.7454 331.318 91.2217 331.318C90.698 331.318 90.2671 331.454 89.9291 331.726C89.591 331.998 89.3408 332.354 89.1784 332.795C89.016 333.236 88.9348 333.711 88.9348 334.222C88.9348 334.732 89.016 335.206 89.1784 335.643C89.3408 336.081 89.591 336.434 89.9291 336.702C90.2671 336.971 90.698 337.105 91.2217 337.105ZM96.3329 338V330.364H97.4664V331.557H97.5659C97.725 331.149 97.9818 330.833 98.3365 330.607C98.6911 330.379 99.117 330.264 99.6142 330.264C100.118 330.264 100.537 330.379 100.872 330.607C101.21 330.833 101.474 331.149 101.662 331.557H101.742C101.938 331.162 102.231 330.849 102.622 330.617C103.013 330.382 103.482 330.264 104.029 330.264C104.712 330.264 105.27 330.478 105.704 330.906C106.139 331.33 106.356 331.991 106.356 332.889V338H105.182V332.889C105.182 332.326 105.028 331.923 104.72 331.681C104.412 331.439 104.049 331.318 103.631 331.318C103.094 331.318 102.678 331.481 102.383 331.805C102.088 332.127 101.941 332.535 101.941 333.028V338H100.748V332.77C100.748 332.336 100.607 331.986 100.325 331.721C100.043 331.452 99.6805 331.318 99.2363 331.318C98.9314 331.318 98.6464 331.399 98.3812 331.562C98.1194 331.724 97.9073 331.95 97.7449 332.238C97.5858 332.523 97.5062 332.853 97.5062 333.227V338H96.3329ZM108.361 338V330.364H109.494V331.557H109.594C109.753 331.149 110.01 330.833 110.364 330.607C110.719 330.379 111.145 330.264 111.642 330.264C112.146 330.264 112.565 330.379 112.9 330.607C113.238 330.833 113.502 331.149 113.69 331.557H113.77C113.966 331.162 114.259 330.849 114.65 330.617C115.041 330.382 115.51 330.264 116.057 330.264C116.74 330.264 117.298 330.478 117.732 330.906C118.167 331.33 118.384 331.991 118.384 332.889V338H117.21V332.889C117.21 332.326 117.056 331.923 116.748 331.681C116.44 331.439 116.077 331.318 115.659 331.318C115.122 331.318 114.706 331.481 114.411 331.805C114.116 332.127 113.969 332.535 113.969 333.028V338H112.776V332.77C112.776 332.336 112.635 331.986 112.353 331.721C112.071 331.452 111.708 331.318 111.264 331.318C110.959 331.318 110.674 331.399 110.409 331.562C110.147 331.724 109.935 331.95 109.773 332.238C109.614 332.523 109.534 332.853 109.534 333.227V338H108.361ZM125.201 334.878V330.364H126.375V338H125.201V336.707H125.122C124.943 337.095 124.664 337.425 124.287 337.697C123.909 337.965 123.431 338.099 122.855 338.099C122.377 338.099 121.953 337.995 121.582 337.786C121.211 337.574 120.919 337.256 120.707 336.832C120.495 336.404 120.389 335.866 120.389 335.216V330.364H121.562V335.136C121.562 335.693 121.718 336.137 122.029 336.469C122.344 336.8 122.745 336.966 123.233 336.966C123.524 336.966 123.821 336.891 124.123 336.742C124.427 336.593 124.683 336.364 124.888 336.056C125.097 335.748 125.201 335.355 125.201 334.878ZM129.557 333.406V338H128.384V330.364H129.517V331.557H129.617C129.796 331.169 130.067 330.857 130.432 330.622C130.797 330.384 131.267 330.264 131.844 330.264C132.361 330.264 132.813 330.37 133.201 330.582C133.589 330.791 133.89 331.109 134.106 331.537C134.321 331.961 134.429 332.498 134.429 333.148V338H133.256V333.227C133.256 332.627 133.1 332.16 132.788 331.825C132.477 331.487 132.049 331.318 131.506 331.318C131.131 331.318 130.797 331.399 130.502 331.562C130.21 331.724 129.98 331.961 129.81 332.273C129.641 332.584 129.557 332.962 129.557 333.406ZM136.433 338V330.364H137.606V338H136.433ZM137.03 329.091C136.801 329.091 136.604 329.013 136.438 328.857C136.276 328.701 136.194 328.514 136.194 328.295C136.194 328.077 136.276 327.889 136.438 327.734C136.604 327.578 136.801 327.5 137.03 327.5C137.258 327.5 137.454 327.578 137.616 327.734C137.782 327.889 137.865 328.077 137.865 328.295C137.865 328.514 137.782 328.701 137.616 328.857C137.454 329.013 137.258 329.091 137.03 329.091ZM142.936 330.364V331.358H138.979V330.364H142.936ZM140.132 328.534H141.306V335.812C141.306 336.144 141.354 336.393 141.45 336.558C141.549 336.721 141.675 336.83 141.828 336.886C141.983 336.939 142.148 336.966 142.32 336.966C142.449 336.966 142.555 336.959 142.638 336.946C142.721 336.929 142.787 336.916 142.837 336.906L143.076 337.96C142.996 337.99 142.885 338.02 142.742 338.05C142.6 338.083 142.419 338.099 142.201 338.099C141.869 338.099 141.544 338.028 141.226 337.886C140.911 337.743 140.649 337.526 140.441 337.234C140.235 336.943 140.132 336.575 140.132 336.131V328.534ZM145.317 340.844C145.118 340.844 144.941 340.827 144.785 340.794C144.629 340.764 144.522 340.734 144.462 340.705L144.76 339.67C145.188 339.78 145.544 339.777 145.829 339.661C146.114 339.548 146.361 339.206 146.57 338.636L146.789 338.04L143.965 330.364H145.237L147.345 336.449H147.425L149.533 330.364L150.816 330.384L147.564 339.114C147.418 339.501 147.238 339.823 147.022 340.078C146.807 340.337 146.557 340.529 146.272 340.655C145.99 340.781 145.672 340.844 145.317 340.844Z" fill="#697077"/>
</g>
<defs>
<filter id="filter0_f" x="69" y="73" width="220" height="220" filterUnits="userSpaceOnUse" color-interpolation-filters="sRGB">
<feFlood flood-opacity="0" result="BackgroundImageFix"/>
<feBlend mode="normal" in="SourceGraphic" in2="BackgroundImageFix" result="shape"/>
<feGaussianBlur stdDeviation="4" result="effect1_foregroundBlur"/>
</filter>
<filter id="filter1_d" x="203" y="266" width="33.4" height="40" filterUnits="userSpaceOnUse" color-interpolation-filters="sRGB">
<feFlood flood-opacity="0" result="BackgroundImageFix"/>
<feColorMatrix in="SourceAlpha" type="matrix" values="0 0 0 0 0 0 0 0 0 0 0 0 0 0 0 0 0 0 127 0"/>
<feOffset dy="2"/>
<feGaussianBlur stdDeviation="4"/>
<feColorMatrix type="matrix" values="0 0 0 0 0.309804 0 0 0 0 0.498039 0 0 0 0 1 0 0 0 0.32 0"/>
<feBlend mode="normal" in2="BackgroundImageFix" result="effect1_dropShadow"/>
<feBlend mode="normal" in="SourceGraphic" in2="effect1_dropShadow" result="shape"/>
</filter>
<linearGradient id="paint0_linear" x1="509" y1="77" x2="266.864" y2="213.202" gradientUnits="userSpaceOnUse">
<stop stop-color="#FFCC70"/>
<stop offset="0.536458" stop-color="#C850C0"/>
<stop offset="1" stop-color="#4158D0"/>
</linearGradient>
<linearGradient id="paint1_linear" x1="179.5" y1="5" x2="179.5" y2="354" gradientUnits="userSpaceOnUse">
<stop stop-color="#F8F9FB"/>
<stop offset="1" stop-color="#F8F9FB" stop-opacity="0"/>
</linearGradient>
<linearGradient id="paint2_linear" x1="77" y1="285" x2="319.136" y2="148.798" gradientUnits="userSpaceOnUse">
<stop stop-color="#0093E9"/>
<stop offset="1" stop-color="#80D0C7"/>
</linearGradient>
<linearGradient id="paint3_linear" x1="77" y1="281" x2="319.136" y2="144.798" gradientUnits="userSpaceOnUse">
<stop stop-color="#0093E9"/>
<stop offset="1" stop-color="#80D0C7"/>
</linearGradient>
<linearGradient id="paint4_linear" x1="149.5" y1="91" x2="149.5" y2="311" gradientUnits="userSpaceOnUse">
<stop stop-color="white"/>
<stop offset="1" stop-color="white" stop-opacity="0"/>
</linearGradient>
</defs>
</svg>
