<svg width="360" height="280" viewBox="0 0 360 280" fill="none" xmlns="http://www.w3.org/2000/svg">
<mask id="mask0" mask-type="alpha" maskUnits="userSpaceOnUse" x="0" y="0" width="360" height="280">
<rect width="360" height="280" fill="url(#paint0_linear)"/>
</mask>
<g mask="url(#mask0)">
<g filter="url(#filter0_dd)">
<rect width="360" height="64" rx="8" fill="white"/>
</g>
<circle cx="32" cy="32" r="16" fill="#DDE1E6"/>
<path d="M38.5 32C38.5 30.23 37.48 28.71 36 27.97V36.02C37.48 35.29 38.5 33.77 38.5 32ZM25 29V35H29L34 40V24L29 29H25Z" fill="#697077"/>
<path d="M68.7727 38.1818C70.7045 38.1818 71.9773 37 72.2045 35.4545H70.8636C70.6136 36.4091 69.8182 36.9773 68.7727 36.9773C67.1818 36.9773 66.1591 35.6591 66.1591 33.6364C66.1591 31.6591 67.2045 30.3636 68.7727 30.3636C69.9545 30.3636 70.6591 31.0909 70.8636 31.8864H72.2045C71.9773 30.25 70.5909 29.1591 68.75 29.1591C66.3864 29.1591 64.8182 31.0227 64.8182 33.6818C64.8182 36.2955 66.3182 38.1818 68.7727 38.1818ZM75.3457 32.75C75.3457 31.2273 76.3173 30.3636 77.6411 30.3636C78.9025 30.3636 79.6639 31.1591 79.6639 32.5455V38H81.0048V32.4545C81.0048 30.2102 79.8116 29.1591 78.0275 29.1591C76.6525 29.1591 75.8684 29.733 75.4593 30.6364H75.3457V26.3636H74.0048V38H75.3457V32.75ZM86.957 38.1818C88.7297 38.1818 90.0252 37.2955 90.4343 35.9773L89.1388 35.6136C88.7979 36.5227 88.0081 36.9773 86.957 36.9773C85.3831 36.9773 84.2979 35.9602 84.2354 34.0909H90.5706V33.5227C90.5706 30.2727 88.6388 29.1591 86.8206 29.1591C84.457 29.1591 82.8888 31.0227 82.8888 33.7045C82.8888 36.3864 84.4343 38.1818 86.957 38.1818ZM84.2354 32.9318C84.3263 31.5739 85.2865 30.3636 86.8206 30.3636C88.2752 30.3636 89.207 31.4545 89.207 32.9318H84.2354ZM96.1095 38.1818C97.8822 38.1818 99.1777 37.2955 99.5868 35.9773L98.2913 35.6136C97.9504 36.5227 97.1606 36.9773 96.1095 36.9773C94.5356 36.9773 93.4504 35.9602 93.3879 34.0909H99.7231V33.5227C99.7231 30.2727 97.7913 29.1591 95.9731 29.1591C93.6095 29.1591 92.0413 31.0227 92.0413 33.7045C92.0413 36.3864 93.5868 38.1818 96.1095 38.1818ZM93.3879 32.9318C93.4788 31.5739 94.439 30.3636 95.9731 30.3636C97.4277 30.3636 98.3595 31.4545 98.3595 32.9318H93.3879ZM107.785 31.2273C107.364 29.9886 106.421 29.1591 104.694 29.1591C102.853 29.1591 101.489 30.2045 101.489 31.6818C101.489 32.8864 102.205 33.6932 103.807 34.0682L105.262 34.4091C106.143 34.6136 106.557 35.0341 106.557 35.6364C106.557 36.3864 105.762 37 104.512 37C103.415 37 102.728 36.5284 102.489 35.5909L101.217 35.9091C101.529 37.392 102.751 38.1818 104.535 38.1818C106.563 38.1818 107.944 37.0739 107.944 35.5682C107.944 34.3523 107.182 33.5852 105.626 33.2045L104.33 32.8864C103.296 32.6307 102.83 32.2841 102.83 31.6136C102.83 30.8636 103.626 30.3182 104.694 30.3182C105.864 30.3182 106.347 30.9659 106.58 31.5682L107.785 31.2273ZM113.461 38.1818C115.234 38.1818 116.53 37.2955 116.939 35.9773L115.643 35.6136C115.302 36.5227 114.513 36.9773 113.461 36.9773C111.888 36.9773 110.802 35.9602 110.74 34.0909H117.075V33.5227C117.075 30.2727 115.143 29.1591 113.325 29.1591C110.961 29.1591 109.393 31.0227 109.393 33.7045C109.393 36.3864 110.939 38.1818 113.461 38.1818ZM110.74 32.9318C110.831 31.5739 111.791 30.3636 113.325 30.3636C114.78 30.3636 115.711 31.4545 115.711 32.9318H110.74Z" fill="#111111"/>
<g filter="url(#filter1_dd)">
<rect y="72" width="360" height="64" rx="8" fill="white"/>
</g>
<circle cx="32" cy="104" r="16" fill="#DDE1E6"/>
<path d="M38.5 104C38.5 102.23 37.48 100.71 36 99.97V108.02C37.48 107.29 38.5 105.77 38.5 104ZM25 101V107H29L34 112V96L29 101H25Z" fill="#697077"/>
<path d="M65.4091 110H66.7045V108.659H66.8636C67.1591 109.136 67.7273 110.182 69.4091 110.182C71.5909 110.182 73.1136 108.432 73.1136 105.659C73.1136 102.909 71.5909 101.159 69.3864 101.159C67.6818 101.159 67.1591 102.205 66.8636 102.659H66.75V98.3636H65.4091V110ZM66.7273 105.636C66.7273 103.682 67.5909 102.364 69.2273 102.364C70.9318 102.364 71.7727 103.795 71.7727 105.636C71.7727 107.5 70.9091 108.977 69.2273 108.977C67.6136 108.977 66.7273 107.614 66.7273 105.636ZM80.5048 106.432C80.5048 108.068 79.2548 108.818 78.2548 108.818C77.1411 108.818 76.3457 108 76.3457 106.727V101.273H75.0048V106.818C75.0048 109.045 76.1866 110.114 77.823 110.114C79.1411 110.114 80.0048 109.409 80.4139 108.523H80.5048V110H81.8457V101.273H80.5048V106.432ZM90.3235 103.227C89.903 101.989 88.9598 101.159 87.2326 101.159C85.3916 101.159 84.028 102.205 84.028 103.682C84.028 104.886 84.7439 105.693 86.3462 106.068L87.8007 106.409C88.6814 106.614 89.0962 107.034 89.0962 107.636C89.0962 108.386 88.3007 109 87.0507 109C85.9541 109 85.2666 108.528 85.028 107.591L83.7553 107.909C84.0678 109.392 85.2894 110.182 87.0735 110.182C89.1019 110.182 90.4826 109.074 90.4826 107.568C90.4826 106.352 89.7212 105.585 88.1644 105.205L86.8689 104.886C85.8348 104.631 85.3689 104.284 85.3689 103.614C85.3689 102.864 86.1644 102.318 87.2326 102.318C88.403 102.318 88.886 102.966 89.1189 103.568L90.3235 103.227ZM92.341 110H93.6819V101.273H92.341V110ZM93.0228 99.8182C93.5456 99.8182 93.9774 99.4091 93.9774 98.9091C93.9774 98.4091 93.5456 98 93.0228 98C92.5001 98 92.0683 98.4091 92.0683 98.9091C92.0683 99.4091 92.5001 99.8182 93.0228 99.8182ZM97.3188 104.75C97.3188 103.227 98.262 102.364 99.5461 102.364C100.79 102.364 101.546 103.176 101.546 104.545V110H102.887V104.455C102.887 102.227 101.699 101.159 99.9324 101.159C98.6143 101.159 97.7961 101.75 97.387 102.636H97.2734V101.273H95.9779V110H97.3188V104.75ZM108.836 110.182C110.609 110.182 111.905 109.295 112.314 107.977L111.018 107.614C110.677 108.523 109.888 108.977 108.836 108.977C107.263 108.977 106.177 107.96 106.115 106.091H112.45V105.523C112.45 102.273 110.518 101.159 108.7 101.159C106.336 101.159 104.768 103.023 104.768 105.705C104.768 108.386 106.314 110.182 108.836 110.182ZM106.115 104.932C106.206 103.574 107.166 102.364 108.7 102.364C110.155 102.364 111.086 103.455 111.086 104.932H106.115ZM120.512 103.227C120.091 101.989 119.148 101.159 117.421 101.159C115.58 101.159 114.216 102.205 114.216 103.682C114.216 104.886 114.932 105.693 116.534 106.068L117.989 106.409C118.87 106.614 119.284 107.034 119.284 107.636C119.284 108.386 118.489 109 117.239 109C116.142 109 115.455 108.528 115.216 107.591L113.943 107.909C114.256 109.392 115.478 110.182 117.262 110.182C119.29 110.182 120.671 109.074 120.671 107.568C120.671 106.352 119.909 105.585 118.353 105.205L117.057 104.886C116.023 104.631 115.557 104.284 115.557 103.614C115.557 102.864 116.353 102.318 117.421 102.318C118.591 102.318 119.074 102.966 119.307 103.568L120.512 103.227ZM128.711 103.227C128.291 101.989 127.347 101.159 125.62 101.159C123.779 101.159 122.416 102.205 122.416 103.682C122.416 104.886 123.131 105.693 124.734 106.068L126.188 106.409C127.069 106.614 127.484 107.034 127.484 107.636C127.484 108.386 126.688 109 125.438 109C124.342 109 123.654 108.528 123.416 107.591L122.143 107.909C122.455 109.392 123.677 110.182 125.461 110.182C127.489 110.182 128.87 109.074 128.87 107.568C128.87 106.352 128.109 105.585 126.552 105.205L125.256 104.886C124.222 104.631 123.756 104.284 123.756 103.614C123.756 102.864 124.552 102.318 125.62 102.318C126.791 102.318 127.273 102.966 127.506 103.568L128.711 103.227Z" fill="#111111"/>
<g filter="url(#filter2_dd)">
<rect y="144" width="360" height="64" rx="8" fill="white"/>
</g>
<circle cx="32" cy="176" r="16" fill="#DDE1E6"/>
<path d="M38.5 176C38.5 174.23 37.48 172.71 36 171.97V180.02C37.48 179.29 38.5 177.77 38.5 176ZM25 173V179H29L34 184V168L29 173H25Z" fill="#697077"/>
<path d="M67.7955 182.205C69.3182 182.205 70.1136 181.386 70.3864 180.818H70.4545V182H71.7955V176.25C71.7955 173.477 69.6818 173.159 68.5682 173.159C67.25 173.159 65.75 173.614 65.0682 175.205L66.3409 175.659C66.6364 175.023 67.3352 174.341 68.6136 174.341C69.8466 174.341 70.4545 174.994 70.4545 176.114V176.159C70.4545 176.807 69.7955 176.75 68.2045 176.955C66.5852 177.165 64.8182 177.523 64.8182 179.523C64.8182 181.227 66.1364 182.205 67.7955 182.205ZM68 181C66.9318 181 66.1591 180.523 66.1591 179.591C66.1591 178.568 67.0909 178.25 68.1364 178.114C68.7045 178.045 70.2273 177.886 70.4545 177.614V178.841C70.4545 179.932 69.5909 181 68 181ZM74.2647 182H75.5602V180.659H75.7193C76.0147 181.136 76.5829 182.182 78.2647 182.182C80.4465 182.182 81.9693 180.432 81.9693 177.659C81.9693 174.909 80.4465 173.159 78.242 173.159C76.5374 173.159 76.0147 174.205 75.7193 174.659H75.6056V170.364H74.2647V182ZM75.5829 177.636C75.5829 175.682 76.4465 174.364 78.0829 174.364C79.7874 174.364 80.6284 175.795 80.6284 177.636C80.6284 179.5 79.7647 180.977 78.0829 180.977C76.4693 180.977 75.5829 179.614 75.5829 177.636ZM85.2013 176.75C85.2013 175.227 86.1729 174.364 87.4968 174.364C88.7581 174.364 89.5195 175.159 89.5195 176.545V182H90.8604V176.455C90.8604 174.21 89.6672 173.159 87.8831 173.159C86.5081 173.159 85.724 173.733 85.3149 174.636H85.2013V170.364H83.8604V182H85.2013V176.75ZM96.699 182.182C99.0626 182.182 100.654 180.386 100.654 177.682C100.654 174.955 99.0626 173.159 96.699 173.159C94.3353 173.159 92.7444 174.955 92.7444 177.682C92.7444 180.386 94.3353 182.182 96.699 182.182ZM96.699 180.977C94.9035 180.977 94.0853 179.432 94.0853 177.682C94.0853 175.932 94.9035 174.364 96.699 174.364C98.4944 174.364 99.3126 175.932 99.3126 177.682C99.3126 179.432 98.4944 180.977 96.699 180.977ZM102.54 182H103.881V176.477C103.881 175.295 104.813 174.432 106.086 174.432C106.444 174.432 106.813 174.5 106.904 174.523V173.159C106.751 173.148 106.398 173.136 106.199 173.136C105.154 173.136 104.245 173.727 103.927 174.591H103.836V173.273H102.54V182ZM108.334 182H109.674V176.477C109.674 175.295 110.606 174.432 111.879 174.432C112.237 174.432 112.606 174.5 112.697 174.523V173.159C112.544 173.148 112.191 173.136 111.993 173.136C110.947 173.136 110.038 173.727 109.72 174.591H109.629V173.273H108.334V182ZM117.52 182.182C119.293 182.182 120.588 181.295 120.997 179.977L119.702 179.614C119.361 180.523 118.571 180.977 117.52 180.977C115.946 180.977 114.861 179.96 114.799 178.091H121.134V177.523C121.134 174.273 119.202 173.159 117.384 173.159C115.02 173.159 113.452 175.023 113.452 177.705C113.452 180.386 114.997 182.182 117.52 182.182ZM114.799 176.932C114.889 175.574 115.85 174.364 117.384 174.364C118.838 174.364 119.77 175.455 119.77 176.932H114.799ZM124.354 176.75C124.354 175.227 125.298 174.364 126.582 174.364C127.826 174.364 128.582 175.176 128.582 176.545V182H129.923V176.455C129.923 174.227 128.735 173.159 126.968 173.159C125.65 173.159 124.832 173.75 124.423 174.636H124.309V173.273H123.014V182H124.354V176.75ZM136.008 173.273H134.145V171.182H132.804V173.273H131.486V174.409H132.804V179.864C132.804 181.386 134.031 182.114 135.167 182.114C135.667 182.114 135.986 182.023 136.167 181.955L135.895 180.75C135.781 180.773 135.599 180.818 135.304 180.818C134.713 180.818 134.145 180.636 134.145 179.5V174.409H136.008V173.273Z" fill="#111111"/>
<g filter="url(#filter3_dd)">
<rect y="216" width="360" height="64" rx="8" fill="white"/>
</g>
<circle cx="32" cy="248" r="16" fill="#DDE1E6"/>
<path d="M38.5 248C38.5 246.23 37.48 244.71 36 243.97V252.02C37.48 251.29 38.5 249.77 38.5 248ZM25 245V251H29L34 256V240L29 245H25Z" fill="#697077"/>
<path d="M66.5682 248.75C66.5682 247.227 67.5114 246.364 68.7955 246.364C70.0398 246.364 70.7955 247.176 70.7955 248.545V254H72.1364V248.455C72.1364 246.227 70.9489 245.159 69.1818 245.159C67.8636 245.159 67.0455 245.75 66.6364 246.636H66.5227V245.273H65.2273V254H66.5682V248.75ZM78.0857 254.182C79.8585 254.182 81.1539 253.295 81.563 251.977L80.2676 251.614C79.9266 252.523 79.1369 252.977 78.0857 252.977C76.5119 252.977 75.4266 251.96 75.3641 250.091H81.6994V249.523C81.6994 246.273 79.7676 245.159 77.9494 245.159C75.5857 245.159 74.0176 247.023 74.0176 249.705C74.0176 252.386 75.563 254.182 78.0857 254.182ZM75.3641 248.932C75.4551 247.574 76.4153 246.364 77.9494 246.364C79.4039 246.364 80.3357 247.455 80.3357 248.932H75.3641ZM87.1246 254.182C89.0564 254.182 90.3291 253 90.5564 251.455H89.2155C88.9655 252.409 88.1701 252.977 87.1246 252.977C85.5337 252.977 84.511 251.659 84.511 249.636C84.511 247.659 85.5564 246.364 87.1246 246.364C88.3064 246.364 89.011 247.091 89.2155 247.886H90.5564C90.3291 246.25 88.9428 245.159 87.1019 245.159C84.7382 245.159 83.1701 247.023 83.1701 249.682C83.1701 252.295 84.6701 254.182 87.1246 254.182ZM96.0157 254.182C97.7885 254.182 99.0839 253.295 99.493 251.977L98.1976 251.614C97.8566 252.523 97.0669 252.977 96.0157 252.977C94.4419 252.977 93.3566 251.96 93.2941 250.091H99.6294V249.523C99.6294 246.273 97.6976 245.159 95.8794 245.159C93.5157 245.159 91.9476 247.023 91.9476 249.705C91.9476 252.386 93.493 254.182 96.0157 254.182ZM93.2941 248.932C93.3851 247.574 94.3453 246.364 95.8794 246.364C97.3339 246.364 98.2657 247.455 98.2657 248.932H93.2941ZM107.691 247.227C107.271 245.989 106.327 245.159 104.6 245.159C102.759 245.159 101.396 246.205 101.396 247.682C101.396 248.886 102.111 249.693 103.714 250.068L105.168 250.409C106.049 250.614 106.464 251.034 106.464 251.636C106.464 252.386 105.668 253 104.418 253C103.322 253 102.634 252.528 102.396 251.591L101.123 251.909C101.435 253.392 102.657 254.182 104.441 254.182C106.469 254.182 107.85 253.074 107.85 251.568C107.85 250.352 107.089 249.585 105.532 249.205L104.236 248.886C103.202 248.631 102.736 248.284 102.736 247.614C102.736 246.864 103.532 246.318 104.6 246.318C105.771 246.318 106.253 246.966 106.486 247.568L107.691 247.227ZM115.89 247.227C115.47 245.989 114.527 245.159 112.799 245.159C110.959 245.159 109.595 246.205 109.595 247.682C109.595 248.886 110.311 249.693 111.913 250.068L113.368 250.409C114.248 250.614 114.663 251.034 114.663 251.636C114.663 252.386 113.868 253 112.618 253C111.521 253 110.834 252.528 110.595 251.591L109.322 251.909C109.635 253.392 110.856 254.182 112.64 254.182C114.669 254.182 116.049 253.074 116.049 251.568C116.049 250.352 115.288 249.585 113.731 249.205L112.436 248.886C111.402 248.631 110.936 248.284 110.936 247.614C110.936 246.864 111.731 246.318 112.799 246.318C113.97 246.318 114.453 246.966 114.686 247.568L115.89 247.227ZM120.476 254.205C121.999 254.205 122.794 253.386 123.067 252.818H123.135V254H124.476V248.25C124.476 245.477 122.362 245.159 121.249 245.159C119.931 245.159 118.431 245.614 117.749 247.205L119.022 247.659C119.317 247.023 120.016 246.341 121.294 246.341C122.527 246.341 123.135 246.994 123.135 248.114V248.159C123.135 248.807 122.476 248.75 120.885 248.955C119.266 249.165 117.499 249.523 117.499 251.523C117.499 253.227 118.817 254.205 120.476 254.205ZM120.681 253C119.612 253 118.84 252.523 118.84 251.591C118.84 250.568 119.772 250.25 120.817 250.114C121.385 250.045 122.908 249.886 123.135 249.614V250.841C123.135 251.932 122.272 253 120.681 253ZM126.764 254H128.104V248.477C128.104 247.295 129.036 246.432 130.309 246.432C130.667 246.432 131.036 246.5 131.127 246.523V245.159C130.974 245.148 130.621 245.136 130.423 245.136C129.377 245.136 128.468 245.727 128.15 246.591H128.059V245.273H126.764V254ZM133.686 257.273C134.896 257.273 135.748 256.631 136.254 255.273L139.97 245.295L138.504 245.273L136.095 252.227H136.004L133.595 245.273H132.14L135.368 254.045L135.118 254.727C134.629 256.057 134.027 256.182 133.05 255.932L132.709 257.114C132.845 257.182 133.231 257.273 133.686 257.273Z" fill="#111111"/>
</g>
<defs>
<filter id="filter0_dd" x="-2" y="-2" width="364" height="70" filterUnits="userSpaceOnUse" color-interpolation-filters="sRGB">
<feFlood flood-opacity="0" result="BackgroundImageFix"/>
<feColorMatrix in="SourceAlpha" type="matrix" values="0 0 0 0 0 0 0 0 0 0 0 0 0 0 0 0 0 0 127 0" result="hardAlpha"/>
<feOffset dy="2"/>
<feGaussianBlur stdDeviation="1"/>
<feColorMatrix type="matrix" values="0 0 0 0 0.411765 0 0 0 0 0.439216 0 0 0 0 0.466667 0 0 0 0.12 0"/>
<feBlend mode="normal" in2="BackgroundImageFix" result="effect1_dropShadow"/>
<feColorMatrix in="SourceAlpha" type="matrix" values="0 0 0 0 0 0 0 0 0 0 0 0 0 0 0 0 0 0 127 0" result="hardAlpha"/>
<feOffset/>
<feGaussianBlur stdDeviation="1"/>
<feColorMatrix type="matrix" values="0 0 0 0 0.411765 0 0 0 0 0.439216 0 0 0 0 0.466667 0 0 0 0.06 0"/>
<feBlend mode="normal" in2="effect1_dropShadow" result="effect2_dropShadow"/>
<feBlend mode="normal" in="SourceGraphic" in2="effect2_dropShadow" result="shape"/>
</filter>
<filter id="filter1_dd" x="-2" y="70" width="364" height="70" filterUnits="userSpaceOnUse" color-interpolation-filters="sRGB">
<feFlood flood-opacity="0" result="BackgroundImageFix"/>
<feColorMatrix in="SourceAlpha" type="matrix" values="0 0 0 0 0 0 0 0 0 0 0 0 0 0 0 0 0 0 127 0" result="hardAlpha"/>
<feOffset dy="2"/>
<feGaussianBlur stdDeviation="1"/>
<feColorMatrix type="matrix" values="0 0 0 0 0.411765 0 0 0 0 0.439216 0 0 0 0 0.466667 0 0 0 0.12 0"/>
<feBlend mode="normal" in2="BackgroundImageFix" result="effect1_dropShadow"/>
<feColorMatrix in="SourceAlpha" type="matrix" values="0 0 0 0 0 0 0 0 0 0 0 0 0 0 0 0 0 0 127 0" result="hardAlpha"/>
<feOffset/>
<feGaussianBlur stdDeviation="1"/>
<feColorMatrix type="matrix" values="0 0 0 0 0.411765 0 0 0 0 0.439216 0 0 0 0 0.466667 0 0 0 0.06 0"/>
<feBlend mode="normal" in2="effect1_dropShadow" result="effect2_dropShadow"/>
<feBlend mode="normal" in="SourceGraphic" in2="effect2_dropShadow" result="shape"/>
</filter>
<filter id="filter2_dd" x="-2" y="142" width="364" height="70" filterUnits="userSpaceOnUse" color-interpolation-filters="sRGB">
<feFlood flood-opacity="0" result="BackgroundImageFix"/>
<feColorMatrix in="SourceAlpha" type="matrix" values="0 0 0 0 0 0 0 0 0 0 0 0 0 0 0 0 0 0 127 0" result="hardAlpha"/>
<feOffset dy="2"/>
<feGaussianBlur stdDeviation="1"/>
<feColorMatrix type="matrix" values="0 0 0 0 0.411765 0 0 0 0 0.439216 0 0 0 0 0.466667 0 0 0 0.12 0"/>
<feBlend mode="normal" in2="BackgroundImageFix" result="effect1_dropShadow"/>
<feColorMatrix in="SourceAlpha" type="matrix" values="0 0 0 0 0 0 0 0 0 0 0 0 0 0 0 0 0 0 127 0" result="hardAlpha"/>
<feOffset/>
<feGaussianBlur stdDeviation="1"/>
<feColorMatrix type="matrix" values="0 0 0 0 0.411765 0 0 0 0 0.439216 0 0 0 0 0.466667 0 0 0 0.06 0"/>
<feBlend mode="normal" in2="effect1_dropShadow" result="effect2_dropShadow"/>
<feBlend mode="normal" in="SourceGraphic" in2="effect2_dropShadow" result="shape"/>
</filter>
<filter id="filter3_dd" x="-2" y="214" width="364" height="70" filterUnits="userSpaceOnUse" color-interpolation-filters="sRGB">
<feFlood flood-opacity="0" result="BackgroundImageFix"/>
<feColorMatrix in="SourceAlpha" type="matrix" values="0 0 0 0 0 0 0 0 0 0 0 0 0 0 0 0 0 0 127 0" result="hardAlpha"/>
<feOffset dy="2"/>
<feGaussianBlur stdDeviation="1"/>
<feColorMatrix type="matrix" values="0 0 0 0 0.411765 0 0 0 0 0.439216 0 0 0 0 0.466667 0 0 0 0.12 0"/>
<feBlend mode="normal" in2="BackgroundImageFix" result="effect1_dropShadow"/>
<feColorMatrix in="SourceAlpha" type="matrix" values="0 0 0 0 0 0 0 0 0 0 0 0 0 0 0 0 0 0 127 0" result="hardAlpha"/>
<feOffset/>
<feGaussianBlur stdDeviation="1"/>
<feColorMatrix type="matrix" values="0 0 0 0 0.411765 0 0 0 0 0.439216 0 0 0 0 0.466667 0 0 0 0.06 0"/>
<feBlend mode="normal" in2="effect1_dropShadow" result="effect2_dropShadow"/>
<feBlend mode="normal" in="SourceGraphic" in2="effect2_dropShadow" result="shape"/>
</filter>
<linearGradient id="paint0_linear" x1="180" y1="62" x2="180" y2="280" gradientUnits="userSpaceOnUse">
<stop stop-color="#C4C4C4"/>
<stop offset="1" stop-color="#C4C4C4" stop-opacity="0"/>
</linearGradient>
</defs>
</svg>
