<svg width="360" height="360" viewBox="0 0 360 360" fill="none" xmlns="http://www.w3.org/2000/svg">
<mask id="mask0" mask-type="alpha" maskUnits="userSpaceOnUse" x="0" y="0" width="360" height="360">
<rect width="360" height="360" rx="16" fill="url(#paint0_linear)"/>
</mask>
<g mask="url(#mask0)">
<g filter="url(#filter0_d)">
<rect width="360" height="80" rx="8" fill="white"/>
</g>
<path d="M29.5682 36L31.4773 24.3636H32.6136L30.7045 36H29.5682ZM24.2727 32.7727L24.4545 31.6364H33.1364L32.9545 32.7727H24.2727ZM25.4773 36L27.3864 24.3636H28.5227L26.6136 36H25.4773ZM24.9545 28.7273L25.1364 27.5909H33.8182L33.6364 28.7273H24.9545ZM39.2292 24.3636V36H37.8201V25.8409H37.7519L34.911 27.7273V26.2955L37.8201 24.3636H39.2292Z" fill="#111111"/>
<path d="M46.7727 25.6136V24.3636H55.5V25.6136H51.8409V36H50.4318V25.6136H46.7727ZM56.4266 36V27.2727H57.7221V28.5909H57.813C57.9721 28.1591 58.26 27.8087 58.6766 27.5398C59.0933 27.2708 59.563 27.1364 60.0857 27.1364C60.1842 27.1364 60.3073 27.1383 60.4551 27.142C60.6028 27.1458 60.7145 27.1515 60.7903 27.1591V28.5227C60.7448 28.5114 60.6407 28.4943 60.4778 28.4716C60.3187 28.4451 60.1501 28.4318 59.9721 28.4318C59.5479 28.4318 59.1691 28.5208 58.8357 28.6989C58.5062 28.8731 58.2448 29.1155 58.0516 29.4261C57.8623 29.733 57.7676 30.0833 57.7676 30.4773V36H56.4266ZM64.788 36.2045C64.2349 36.2045 63.733 36.1004 63.2823 35.892C62.8315 35.6799 62.4736 35.375 62.2084 34.9773C61.9433 34.5758 61.8107 34.0909 61.8107 33.5227C61.8107 33.0227 61.9092 32.6174 62.1061 32.3068C62.3031 31.9924 62.5664 31.7462 62.8959 31.5682C63.2255 31.3902 63.5891 31.2576 63.9868 31.1705C64.3883 31.0795 64.7917 31.0076 65.197 30.9545C65.7273 30.8864 66.1573 30.8352 66.4868 30.8011C66.8202 30.7633 67.0626 30.7008 67.2141 30.6136C67.3694 30.5265 67.447 30.375 67.447 30.1591V30.1136C67.447 29.553 67.2936 29.1174 66.9868 28.8068C66.6838 28.4962 66.2236 28.3409 65.6061 28.3409C64.966 28.3409 64.4641 28.4811 64.1005 28.7614C63.7368 29.0417 63.4811 29.3409 63.3334 29.6591L62.0607 29.2045C62.288 28.6742 62.591 28.2614 62.9698 27.9659C63.3523 27.6667 63.769 27.4583 64.2198 27.3409C64.6743 27.2197 65.1213 27.1591 65.5607 27.1591C65.841 27.1591 66.163 27.1932 66.5266 27.2614C66.894 27.3258 67.2482 27.4602 67.5891 27.6648C67.9338 27.8693 68.2198 28.178 68.447 28.5909C68.6743 29.0038 68.788 29.5568 68.788 30.25V36H67.447V34.8182H67.3789C67.288 35.0076 67.1364 35.2102 66.9243 35.4261C66.7122 35.642 66.43 35.8258 66.0777 35.9773C65.7255 36.1288 65.2955 36.2045 64.788 36.2045ZM64.9925 35C65.5228 35 65.9698 34.8958 66.3334 34.6875C66.7008 34.4792 66.9773 34.2102 67.163 33.8807C67.3523 33.5511 67.447 33.2045 67.447 32.8409V31.6136C67.3902 31.6818 67.2652 31.7443 67.072 31.8011C66.8827 31.8542 66.663 31.9015 66.413 31.9432C66.1667 31.9811 65.9262 32.0152 65.6914 32.0455C65.4603 32.072 65.2728 32.0947 65.1289 32.1136C64.7804 32.1591 64.4546 32.233 64.1516 32.3352C63.8523 32.4337 63.6099 32.5833 63.4243 32.7841C63.2425 32.9811 63.1516 33.25 63.1516 33.5909C63.1516 34.0568 63.3239 34.4091 63.6686 34.6477C64.0171 34.8826 64.4584 35 64.9925 35ZM77.8993 27.2727L74.672 36H73.3084L70.0811 27.2727H71.5356L73.9447 34.2273H74.0356L76.4447 27.2727H77.8993ZM82.8557 36.1818C82.0148 36.1818 81.2895 35.9962 80.6796 35.625C80.0735 35.25 79.6057 34.7273 79.2762 34.0568C78.9504 33.3826 78.7876 32.5985 78.7876 31.7045C78.7876 30.8106 78.9504 30.0227 79.2762 29.3409C79.6057 28.6553 80.0641 28.1212 80.6512 27.7386C81.2421 27.3523 81.9315 27.1591 82.7194 27.1591C83.1739 27.1591 83.6228 27.2348 84.066 27.3864C84.5091 27.5379 84.9126 27.7841 85.2762 28.125C85.6398 28.4621 85.9296 28.9091 86.1455 29.4659C86.3614 30.0227 86.4694 30.7083 86.4694 31.5227V32.0909H79.7421V30.9318H85.1057C85.1057 30.4394 85.0073 30 84.8103 29.6136C84.6171 29.2273 84.3406 28.9223 83.9807 28.6989C83.6247 28.4754 83.2042 28.3636 82.7194 28.3636C82.1853 28.3636 81.7232 28.4962 81.333 28.7614C80.9466 29.0227 80.6493 29.3636 80.441 29.7841C80.2326 30.2045 80.1285 30.6553 80.1285 31.1364V31.9091C80.1285 32.5682 80.2421 33.1269 80.4694 33.5852C80.7004 34.0398 81.0205 34.3864 81.4296 34.625C81.8387 34.8598 82.3141 34.9773 82.8557 34.9773C83.208 34.9773 83.5262 34.928 83.8103 34.8295C84.0982 34.7273 84.3463 34.5758 84.5546 34.375C84.7629 34.1705 84.9239 33.9167 85.0376 33.6136L86.333 33.9773C86.1966 34.4167 85.9675 34.803 85.6455 35.1364C85.3235 35.4659 84.9258 35.7235 84.4523 35.9091C83.9788 36.0909 83.4466 36.1818 82.8557 36.1818ZM89.6901 24.3636V36H88.3491V24.3636H89.6901ZM91.986 36V27.2727H93.3269V36H91.986ZM92.6678 25.8182C92.4065 25.8182 92.1811 25.7292 91.9917 25.5511C91.8061 25.3731 91.7133 25.1591 91.7133 24.9091C91.7133 24.6591 91.8061 24.4451 91.9917 24.267C92.1811 24.089 92.4065 24 92.6678 24C92.9292 24 93.1527 24.089 93.3383 24.267C93.5277 24.4451 93.6224 24.6591 93.6224 24.9091C93.6224 25.1591 93.5277 25.3731 93.3383 25.5511C93.1527 25.7292 92.9292 25.8182 92.6678 25.8182ZM96.9638 30.75V36H95.6229V27.2727H96.9184V28.6364H97.032C97.2365 28.1932 97.5471 27.8371 97.9638 27.5682C98.3805 27.2955 98.9184 27.1591 99.5774 27.1591C100.168 27.1591 100.685 27.2803 101.129 27.5227C101.572 27.7614 101.916 28.125 102.163 28.6136C102.409 29.0985 102.532 29.7121 102.532 30.4545V36H101.191V30.5455C101.191 29.8598 101.013 29.3258 100.657 28.9432C100.301 28.5568 99.8123 28.3636 99.1911 28.3636C98.7631 28.3636 98.3805 28.4564 98.0434 28.642C97.71 28.8277 97.4468 29.0985 97.2536 29.4545C97.0604 29.8106 96.9638 30.2424 96.9638 30.75ZM108.345 39.4545C107.697 39.4545 107.14 39.3712 106.675 39.2045C106.209 39.0417 105.82 38.8258 105.51 38.5568C105.203 38.2917 104.959 38.0076 104.777 37.7045L105.845 36.9545C105.966 37.1136 106.12 37.2955 106.305 37.5C106.491 37.7083 106.745 37.8883 107.067 38.0398C107.392 38.1951 107.818 38.2727 108.345 38.2727C109.05 38.2727 109.631 38.1023 110.089 37.7614C110.548 37.4205 110.777 36.8864 110.777 36.1591V34.3864H110.663C110.565 34.5455 110.425 34.7424 110.243 34.9773C110.065 35.2083 109.807 35.4148 109.47 35.5966C109.137 35.7746 108.686 35.8636 108.118 35.8636C107.413 35.8636 106.781 35.697 106.22 35.3636C105.663 35.0303 105.222 34.5455 104.896 33.9091C104.574 33.2727 104.413 32.5 104.413 31.5909C104.413 30.697 104.57 29.9186 104.885 29.2557C105.199 28.589 105.637 28.0739 106.197 27.7102C106.758 27.3428 107.406 27.1591 108.14 27.1591C108.709 27.1591 109.159 27.2538 109.493 27.4432C109.83 27.6288 110.087 27.8409 110.265 28.0795C110.447 28.3144 110.587 28.5076 110.686 28.6591H110.822V27.2727H112.118V36.25C112.118 37 111.947 37.6098 111.606 38.0795C111.269 38.553 110.815 38.8996 110.243 39.1193C109.675 39.3428 109.042 39.4545 108.345 39.4545ZM108.3 34.6591C108.837 34.6591 109.292 34.536 109.663 34.2898C110.034 34.0436 110.317 33.6894 110.51 33.2273C110.703 32.7652 110.8 32.2121 110.8 31.5682C110.8 30.9394 110.705 30.3845 110.515 29.9034C110.326 29.4223 110.046 29.0455 109.675 28.7727C109.303 28.5 108.845 28.3636 108.3 28.3636C107.731 28.3636 107.258 28.5076 106.879 28.7955C106.504 29.0833 106.222 29.4697 106.033 29.9545C105.847 30.4394 105.754 30.9773 105.754 31.5682C105.754 32.1742 105.849 32.7102 106.038 33.1761C106.231 33.6383 106.515 34.0019 106.89 34.267C107.269 34.5284 107.739 34.6591 108.3 34.6591Z" fill="#111111"/>
<path d="M28.6335 45.8182V56H27.4006V47.1108H27.3409L24.8551 48.7614V47.5085L27.4006 45.8182H28.6335ZM31.4218 56V55.1051L34.7826 51.4261C35.177 50.9953 35.5018 50.6207 35.757 50.3026C36.0122 49.9811 36.2011 49.6795 36.3238 49.3977C36.4497 49.1127 36.5127 48.8144 36.5127 48.5028C36.5127 48.1449 36.4265 47.835 36.2542 47.5732C36.0851 47.3113 35.8531 47.1091 35.5582 46.9666C35.2632 46.8241 34.9317 46.7528 34.5638 46.7528C34.1727 46.7528 33.8314 46.834 33.5397 46.9964C33.2513 47.1555 33.0276 47.3793 32.8685 47.6676C32.7127 47.956 32.6349 48.294 32.6349 48.6818H31.4616C31.4616 48.0852 31.5991 47.5616 31.8742 47.1108C32.1493 46.66 32.5238 46.3087 32.9978 46.0568C33.4751 45.8049 34.0103 45.679 34.6036 45.679C35.2002 45.679 35.7288 45.8049 36.1895 46.0568C36.6502 46.3087 37.0115 46.6484 37.2734 47.076C37.5352 47.5036 37.6661 47.9792 37.6661 48.5028C37.6661 48.8774 37.5982 49.2436 37.4623 49.6016C37.3297 49.9562 37.0977 50.3523 36.7663 50.7898C36.4381 51.224 35.9824 51.7543 35.3991 52.3807L33.1121 54.8267V54.9062H37.8451V56H31.4218ZM46.678 56.1591C45.9886 56.1591 45.3837 55.995 44.8634 55.6669C44.3463 55.3388 43.942 54.8797 43.6503 54.2898C43.362 53.6998 43.2178 53.0104 43.2178 52.2216C43.2178 51.4261 43.362 50.7318 43.6503 50.1385C43.942 49.5452 44.3463 49.0845 44.8634 48.7564C45.3837 48.4283 45.9886 48.2642 46.678 48.2642C47.3674 48.2642 47.9706 48.4283 48.4877 48.7564C49.008 49.0845 49.4124 49.5452 49.7007 50.1385C49.9924 50.7318 50.1382 51.4261 50.1382 52.2216C50.1382 53.0104 49.9924 53.6998 49.7007 54.2898C49.4124 54.8797 49.008 55.3388 48.4877 55.6669C47.9706 55.995 47.3674 56.1591 46.678 56.1591ZM46.678 55.1051C47.2017 55.1051 47.6326 54.9709 47.9706 54.7024C48.3087 54.4339 48.5589 54.081 48.7213 53.6435C48.8837 53.206 48.9649 52.732 48.9649 52.2216C48.9649 51.7112 48.8837 51.2356 48.7213 50.7947C48.5589 50.3539 48.3087 49.9976 47.9706 49.7259C47.6326 49.4541 47.2017 49.3182 46.678 49.3182C46.1543 49.3182 45.7235 49.4541 45.3854 49.7259C45.0473 49.9976 44.7971 50.3539 44.6347 50.7947C44.4723 51.2356 44.3911 51.7112 44.3911 52.2216C44.3911 52.732 44.4723 53.206 44.6347 53.6435C44.7971 54.081 45.0473 54.4339 45.3854 54.7024C45.7235 54.9709 46.1543 55.1051 46.678 55.1051ZM51.7893 56V48.3636H52.9626V51.6847H53.7381L56.4824 48.3636H57.9938L54.9114 52.0426L58.0336 56H56.5222L54.0165 52.7784H52.9626V56H51.7893ZM58.7313 49.4574V48.3636H64.9358V49.4574H62.4301V56H61.2569V49.4574H58.7313ZM71.1011 56V49.4375H69.0726C68.6153 49.4375 68.2556 49.5436 67.9938 49.7557C67.732 49.9678 67.6011 50.2595 67.6011 50.6307C67.6011 50.9953 67.7187 51.282 67.954 51.4908C68.1927 51.6996 68.5191 51.804 68.9334 51.804H71.3993V52.8977H68.9334C68.4164 52.8977 67.9706 52.8066 67.5961 52.6243C67.2216 52.442 66.9332 52.1818 66.731 51.8438C66.5288 51.5024 66.4278 51.098 66.4278 50.6307C66.4278 50.16 66.5338 49.7557 66.7459 49.4176C66.9581 49.0795 67.2613 48.8194 67.6557 48.6371C68.0535 48.4548 68.5258 48.3636 69.0726 48.3636H72.2147V56H71.1011ZM66.0101 56L68.1778 52.2017H69.4505L67.2829 56H66.0101ZM79.8962 45.5L80.4928 46.2159C80.2608 46.4413 79.9924 46.5987 79.6874 46.6882C79.3825 46.7777 79.0378 46.8324 78.6533 46.8523C78.2689 46.8722 77.8413 46.892 77.3707 46.9119C76.8404 46.9318 76.4012 47.0611 76.0532 47.2997C75.7052 47.5384 75.4367 47.883 75.2478 48.3338C75.0589 48.7846 74.9379 49.3381 74.8849 49.9943H74.9843C75.2428 49.517 75.6008 49.1657 76.0582 48.9403C76.5156 48.715 77.0061 48.6023 77.5298 48.6023C78.1264 48.6023 78.6633 48.7415 79.1406 49.0199C79.6178 49.2983 79.9957 49.7109 80.2741 50.2578C80.5525 50.8047 80.6917 51.4792 80.6917 52.2812C80.6917 53.08 80.5492 53.7694 80.2641 54.3494C79.9824 54.9295 79.5863 55.3769 79.0759 55.6918C78.5688 56.0033 77.9739 56.1591 77.2911 56.1591C76.6084 56.1591 76.0101 55.9983 75.4964 55.6768C74.9827 55.352 74.5833 54.8714 74.2982 54.2351C74.0132 53.5954 73.8707 52.8049 73.8707 51.8636V51.0483C73.8707 49.348 74.159 48.0587 74.7357 47.1804C75.3158 46.3021 76.1874 45.848 77.3508 45.8182C77.7618 45.8049 78.128 45.8016 78.4495 45.8082C78.771 45.8149 79.0511 45.8 79.2897 45.7635C79.5283 45.727 79.7305 45.6392 79.8962 45.5ZM77.2911 55.1051C77.7518 55.1051 78.1479 54.9891 78.4793 54.7571C78.8141 54.5251 79.071 54.1986 79.2499 53.7777C79.4289 53.3535 79.5184 52.8546 79.5184 52.2812C79.5184 51.7244 79.4273 51.2505 79.245 50.8594C79.066 50.4683 78.8091 50.17 78.4744 49.9645C78.1396 49.759 77.7386 49.6562 77.2712 49.6562C76.9299 49.6562 76.6233 49.7143 76.3515 49.8303C76.0797 49.9463 75.8477 50.117 75.6555 50.3423C75.4632 50.5677 75.3141 50.8428 75.208 51.1676C75.1053 51.4924 75.0506 51.8636 75.044 52.2812C75.044 53.1364 75.2445 53.8208 75.6455 54.3345C76.0466 54.8482 76.5951 55.1051 77.2911 55.1051ZM82.3464 58.8636V48.3636H83.48V49.5767H83.6192C83.7053 49.4441 83.8247 49.2751 83.9771 49.0696C84.1329 48.8608 84.355 48.6752 84.6433 48.5128C84.935 48.3471 85.3294 48.2642 85.8266 48.2642C86.4695 48.2642 87.0363 48.425 87.5268 48.7464C88.0174 49.0679 88.4002 49.5237 88.6753 50.1136C88.9504 50.7036 89.0879 51.3996 89.0879 52.2017C89.0879 53.0104 88.9504 53.7114 88.6753 54.3047C88.4002 54.8946 88.019 55.352 87.5318 55.6768C87.0446 55.9983 86.4828 56.1591 85.8464 56.1591C85.3559 56.1591 84.9632 56.0779 84.6682 55.9155C84.3732 55.7498 84.1462 55.5625 83.9871 55.3537C83.828 55.1416 83.7053 54.9659 83.6192 54.8267H83.5197V58.8636H82.3464ZM83.4999 52.1818C83.4999 52.7585 83.5844 53.2673 83.7534 53.7081C83.9224 54.1456 84.1694 54.4886 84.4942 54.7372C84.819 54.9825 85.2167 55.1051 85.6874 55.1051C86.1779 55.1051 86.5872 54.9759 86.9153 54.7173C87.2468 54.4555 87.4954 54.1042 87.6611 53.6634C87.8301 53.2192 87.9146 52.7254 87.9146 52.1818C87.9146 51.6449 87.8318 51.161 87.666 50.7301C87.5036 50.2959 87.2567 49.9529 86.9253 49.701C86.5972 49.4458 86.1845 49.3182 85.6874 49.3182C85.2101 49.3182 84.809 49.4392 84.4842 49.6811C84.1594 49.9197 83.9142 50.2545 83.7484 50.6854C83.5827 51.1129 83.4999 51.6117 83.4999 52.1818ZM95.3314 56V49.4375H93.303C92.8456 49.4375 92.486 49.5436 92.2242 49.7557C91.9624 49.9678 91.8314 50.2595 91.8314 50.6307C91.8314 50.9953 91.9491 51.282 92.1844 51.4908C92.4231 51.6996 92.7495 51.804 93.1638 51.804H95.6297V52.8977H93.1638C92.6468 52.8977 92.201 52.8066 91.8265 52.6243C91.4519 52.442 91.1636 52.1818 90.9614 51.8438C90.7592 51.5024 90.6581 51.098 90.6581 50.6307C90.6581 50.16 90.7642 49.7557 90.9763 49.4176C91.1884 49.0795 91.4917 48.8194 91.8861 48.6371C92.2839 48.4548 92.7562 48.3636 93.303 48.3636H96.4451V56H95.3314ZM90.2405 56L92.4081 52.2017H93.6809L91.5133 56H90.2405ZM100.209 54.608L100.129 55.1449C100.073 55.5227 99.987 55.9271 99.871 56.358C99.7583 56.7888 99.6406 57.1948 99.518 57.576C99.3953 57.9571 99.2942 58.2604 99.2147 58.4858H98.3198C98.3629 58.2737 98.4192 57.9936 98.4888 57.6456C98.5585 57.2976 98.6281 56.9081 98.6977 56.4773C98.7706 56.0497 98.8302 55.6122 98.8766 55.1648L98.9363 54.608H100.209ZM109.341 56.1392C108.592 56.1392 107.954 55.9354 107.427 55.5277C106.9 55.1167 106.498 54.5218 106.219 53.7429C105.941 52.9607 105.802 52.0161 105.802 50.9091C105.802 49.8087 105.941 48.8691 106.219 48.0902C106.501 47.308 106.905 46.7114 107.432 46.3004C107.963 45.8861 108.599 45.679 109.341 45.679C110.084 45.679 110.719 45.8861 111.246 46.3004C111.776 46.7114 112.18 47.308 112.459 48.0902C112.74 48.8691 112.881 49.8087 112.881 50.9091C112.881 52.0161 112.742 52.9607 112.464 53.7429C112.185 54.5218 111.783 55.1167 111.256 55.5277C110.729 55.9354 110.091 56.1392 109.341 56.1392ZM109.341 55.0455C110.084 55.0455 110.661 54.6875 111.072 53.9716C111.483 53.2557 111.688 52.2348 111.688 50.9091C111.688 50.0275 111.594 49.2768 111.405 48.657C111.219 48.0372 110.951 47.5649 110.599 47.2401C110.251 46.9152 109.832 46.7528 109.341 46.7528C108.606 46.7528 108.031 47.1158 107.616 47.8416C107.202 48.5642 106.995 49.5866 106.995 50.9091C106.995 51.7907 107.088 52.5398 107.273 53.1562C107.459 53.7727 107.726 54.2417 108.074 54.5632C108.425 54.8847 108.848 55.0455 109.341 55.0455ZM117.872 45.6591C118.29 45.6624 118.707 45.742 119.125 45.8977C119.542 46.0535 119.924 46.312 120.268 46.6733C120.613 47.0346 120.89 47.5268 121.099 48.1499C121.307 48.7696 121.412 49.5502 121.412 50.4915C121.412 51.3963 121.326 52.2 121.153 52.9027C120.984 53.602 120.739 54.192 120.417 54.6726C120.099 55.1532 119.711 55.5178 119.254 55.7663C118.8 56.0149 118.286 56.1392 117.713 56.1392C117.143 56.1392 116.634 56.0265 116.187 55.8011C115.742 55.5724 115.378 55.2559 115.093 54.8516C114.811 54.4439 114.63 53.9716 114.551 53.4347H115.764C115.873 53.902 116.09 54.2881 116.415 54.593C116.743 54.8946 117.176 55.0455 117.713 55.0455C118.498 55.0455 119.118 54.7024 119.572 54.0163C120.03 53.3303 120.258 52.3608 120.258 51.108H120.179C119.993 51.3864 119.773 51.6267 119.518 51.8288C119.262 52.031 118.979 52.1868 118.667 52.2962C118.356 52.4055 118.024 52.4602 117.673 52.4602C117.09 52.4602 116.554 52.3161 116.067 52.0277C115.583 51.736 115.196 51.3366 114.904 50.8295C114.616 50.3191 114.471 49.7358 114.471 49.0795C114.471 48.4498 114.611 47.8748 114.889 47.3544C115.171 46.834 115.565 46.4197 116.072 46.1115C116.583 45.8033 117.183 45.6525 117.872 45.6591ZM117.872 46.7528C117.454 46.7528 117.078 46.8572 116.743 47.0661C116.412 47.2749 116.148 47.5549 115.953 47.9062C115.761 48.2576 115.665 48.6487 115.665 49.0795C115.665 49.5038 115.757 49.8899 115.943 50.2379C116.132 50.5826 116.389 50.8577 116.714 51.0632C117.042 51.2654 117.415 51.3665 117.832 51.3665C118.147 51.3665 118.44 51.3052 118.712 51.1825C118.984 51.0566 119.221 50.8859 119.423 50.6705C119.629 50.4517 119.789 50.2048 119.905 49.9297C120.021 49.6513 120.079 49.3613 120.079 49.0597C120.079 48.6553 119.983 48.2775 119.791 47.9261C119.602 47.5748 119.34 47.2914 119.005 47.076C118.674 46.8606 118.296 46.7528 117.872 46.7528ZM124.102 54.6974C123.857 54.6974 123.646 54.6096 123.47 54.4339C123.295 54.2583 123.207 54.0478 123.207 53.8026C123.207 53.5573 123.295 53.3468 123.47 53.1712C123.646 52.9955 123.857 52.9077 124.102 52.9077C124.347 52.9077 124.558 52.9955 124.733 53.1712C124.909 53.3468 124.997 53.5573 124.997 53.8026C124.997 53.965 124.955 54.1141 124.872 54.25C124.793 54.3859 124.685 54.4953 124.549 54.5781C124.417 54.6577 124.268 54.6974 124.102 54.6974ZM124.102 49.5469C123.857 49.5469 123.646 49.459 123.47 49.2834C123.295 49.1077 123.207 48.8973 123.207 48.652C123.207 48.4067 123.295 48.1963 123.47 48.0206C123.646 47.8449 123.857 47.7571 124.102 47.7571C124.347 47.7571 124.558 47.8449 124.733 48.0206C124.909 48.1963 124.997 48.4067 124.997 48.652C124.997 48.8144 124.955 48.9635 124.872 49.0994C124.793 49.2353 124.685 49.3447 124.549 49.4276C124.417 49.5071 124.268 49.5469 124.102 49.5469ZM130.263 56.1392C129.514 56.1392 128.876 55.9354 128.349 55.5277C127.822 55.1167 127.42 54.5218 127.141 53.7429C126.863 52.9607 126.724 52.0161 126.724 50.9091C126.724 49.8087 126.863 48.8691 127.141 48.0902C127.423 47.308 127.827 46.7114 128.354 46.3004C128.884 45.8861 129.521 45.679 130.263 45.679C131.006 45.679 131.64 45.8861 132.167 46.3004C132.698 46.7114 133.102 47.308 133.38 48.0902C133.662 48.8691 133.803 49.8087 133.803 50.9091C133.803 52.0161 133.664 52.9607 133.385 53.7429C133.107 54.5218 132.704 55.1167 132.177 55.5277C131.65 55.9354 131.012 56.1392 130.263 56.1392ZM130.263 55.0455C131.006 55.0455 131.582 54.6875 131.993 53.9716C132.404 53.2557 132.61 52.2348 132.61 50.9091C132.61 50.0275 132.515 49.2768 132.326 48.657C132.141 48.0372 131.872 47.5649 131.521 47.2401C131.173 46.9152 130.754 46.7528 130.263 46.7528C129.527 46.7528 128.952 47.1158 128.538 47.8416C128.124 48.5642 127.917 49.5866 127.917 50.9091C127.917 51.7907 128.009 52.5398 128.195 53.1562C128.381 53.7727 128.648 54.2417 128.996 54.5632C129.347 54.8847 129.769 55.0455 130.263 55.0455ZM138.873 56.1392C138.124 56.1392 137.486 55.9354 136.959 55.5277C136.432 55.1167 136.03 54.5218 135.751 53.7429C135.473 52.9607 135.334 52.0161 135.334 50.9091C135.334 49.8087 135.473 48.8691 135.751 48.0902C136.033 47.308 136.437 46.7114 136.964 46.3004C137.494 45.8861 138.131 45.679 138.873 45.679C139.616 45.679 140.25 45.8861 140.777 46.3004C141.308 46.7114 141.712 47.308 141.99 48.0902C142.272 48.8691 142.413 49.8087 142.413 50.9091C142.413 52.0161 142.274 52.9607 141.995 53.7429C141.717 54.5218 141.314 55.1167 140.787 55.5277C140.26 55.9354 139.622 56.1392 138.873 56.1392ZM138.873 55.0455C139.616 55.0455 140.192 54.6875 140.603 53.9716C141.014 53.2557 141.22 52.2348 141.22 50.9091C141.22 50.0275 141.125 49.2768 140.936 48.657C140.751 48.0372 140.482 47.5649 140.131 47.2401C139.783 46.9152 139.364 46.7528 138.873 46.7528C138.137 46.7528 137.562 47.1158 137.148 47.8416C136.734 48.5642 136.527 49.5866 136.527 50.9091C136.527 51.7907 136.619 52.5398 136.805 53.1562C136.991 53.7727 137.258 54.2417 137.606 54.5632C137.957 54.8847 138.379 55.0455 138.873 55.0455ZM152.355 50.3622V51.456H147.9V50.3622H152.355ZM161.636 45.8182V56H160.403V47.1108H160.344L157.858 48.7614V47.5085L160.403 45.8182H161.636ZM167.746 56.1392C166.996 56.1392 166.358 55.9354 165.831 55.5277C165.304 55.1167 164.902 54.5218 164.623 53.7429C164.345 52.9607 164.206 52.0161 164.206 50.9091C164.206 49.8087 164.345 48.8691 164.623 48.0902C164.905 47.308 165.309 46.7114 165.836 46.3004C166.367 45.8861 167.003 45.679 167.746 45.679C168.488 45.679 169.123 45.8861 169.65 46.3004C170.18 46.7114 170.584 47.308 170.863 48.0902C171.144 48.8691 171.285 49.8087 171.285 50.9091C171.285 52.0161 171.146 52.9607 170.868 53.7429C170.589 54.5218 170.187 55.1167 169.66 55.5277C169.133 55.9354 168.495 56.1392 167.746 56.1392ZM167.746 55.0455C168.488 55.0455 169.065 54.6875 169.476 53.9716C169.887 53.2557 170.092 52.2348 170.092 50.9091C170.092 50.0275 169.998 49.2768 169.809 48.657C169.623 48.0372 169.355 47.5649 169.003 47.2401C168.655 46.9152 168.236 46.7528 167.746 46.7528C167.01 46.7528 166.435 47.1158 166.02 47.8416C165.606 48.5642 165.399 49.5866 165.399 50.9091C165.399 51.7907 165.492 52.5398 165.677 53.1562C165.863 53.7727 166.13 54.2417 166.478 54.5632C166.829 54.8847 167.252 55.0455 167.746 55.0455ZM173.91 54.6974C173.664 54.6974 173.454 54.6096 173.278 54.4339C173.102 54.2583 173.015 54.0478 173.015 53.8026C173.015 53.5573 173.102 53.3468 173.278 53.1712C173.454 52.9955 173.664 52.9077 173.91 52.9077C174.155 52.9077 174.365 52.9955 174.541 53.1712C174.717 53.3468 174.804 53.5573 174.804 53.8026C174.804 53.965 174.763 54.1141 174.68 54.25C174.601 54.3859 174.493 54.4953 174.357 54.5781C174.224 54.6577 174.075 54.6974 173.91 54.6974ZM173.91 49.5469C173.664 49.5469 173.454 49.459 173.278 49.2834C173.102 49.1077 173.015 48.8973 173.015 48.652C173.015 48.4067 173.102 48.1963 173.278 48.0206C173.454 47.8449 173.664 47.7571 173.91 47.7571C174.155 47.7571 174.365 47.8449 174.541 48.0206C174.717 48.1963 174.804 48.4067 174.804 48.652C174.804 48.8144 174.763 48.9635 174.68 49.0994C174.601 49.2353 174.493 49.3447 174.357 49.4276C174.224 49.5071 174.075 49.5469 173.91 49.5469ZM180.071 56.1392C179.322 56.1392 178.684 55.9354 178.157 55.5277C177.63 55.1167 177.227 54.5218 176.949 53.7429C176.67 52.9607 176.531 52.0161 176.531 50.9091C176.531 49.8087 176.67 48.8691 176.949 48.0902C177.231 47.308 177.635 46.7114 178.162 46.3004C178.692 45.8861 179.329 45.679 180.071 45.679C180.813 45.679 181.448 45.8861 181.975 46.3004C182.505 46.7114 182.91 47.308 183.188 48.0902C183.47 48.8691 183.611 49.8087 183.611 50.9091C183.611 52.0161 183.472 52.9607 183.193 53.7429C182.915 54.5218 182.512 55.1167 181.985 55.5277C181.458 55.9354 180.82 56.1392 180.071 56.1392ZM180.071 55.0455C180.813 55.0455 181.39 54.6875 181.801 53.9716C182.212 53.2557 182.418 52.2348 182.418 50.9091C182.418 50.0275 182.323 49.2768 182.134 48.657C181.949 48.0372 181.68 47.5649 181.329 47.2401C180.981 46.9152 180.562 46.7528 180.071 46.7528C179.335 46.7528 178.76 47.1158 178.346 47.8416C177.932 48.5642 177.724 49.5866 177.724 50.9091C177.724 51.7907 177.817 52.5398 178.003 53.1562C178.188 53.7727 178.455 54.2417 178.803 54.5632C179.155 54.8847 179.577 55.0455 180.071 55.0455ZM188.681 56.1392C187.932 56.1392 187.294 55.9354 186.767 55.5277C186.24 55.1167 185.837 54.5218 185.559 53.7429C185.28 52.9607 185.141 52.0161 185.141 50.9091C185.141 49.8087 185.28 48.8691 185.559 48.0902C185.841 47.308 186.245 46.7114 186.772 46.3004C187.302 45.8861 187.939 45.679 188.681 45.679C189.423 45.679 190.058 45.8861 190.585 46.3004C191.115 46.7114 191.52 47.308 191.798 48.0902C192.08 48.8691 192.221 49.8087 192.221 50.9091C192.221 52.0161 192.082 52.9607 191.803 53.7429C191.525 54.5218 191.122 55.1167 190.595 55.5277C190.068 55.9354 189.43 56.1392 188.681 56.1392ZM188.681 55.0455C189.423 55.0455 190 54.6875 190.411 53.9716C190.822 53.2557 191.028 52.2348 191.028 50.9091C191.028 50.0275 190.933 49.2768 190.744 48.657C190.559 48.0372 190.29 47.5649 189.939 47.2401C189.591 46.9152 189.172 46.7528 188.681 46.7528C187.945 46.7528 187.37 47.1158 186.956 47.8416C186.542 48.5642 186.334 49.5866 186.334 50.9091C186.334 51.7907 186.427 52.5398 186.613 53.1562C186.798 53.7727 187.065 54.2417 187.413 54.5632C187.765 54.8847 188.187 55.0455 188.681 55.0455Z" fill="#697077"/>
<rect y="92" width="360" height="80" rx="8" fill="white"/>
<rect x="24" y="116" width="18" height="12" rx="6" fill="#C1C7CD"/>
<rect x="48" y="116" width="131" height="12" rx="6" fill="#C1C7CD"/>
<rect x="24" y="138" width="169" height="10" rx="5" fill="#DDE1E6"/>
<rect y="184" width="360" height="80" rx="8" fill="white"/>
<rect x="24" y="208" width="18" height="12" rx="6" fill="#C1C7CD"/>
<rect x="48" y="208" width="73" height="12" rx="6" fill="#C1C7CD"/>
<rect x="24" y="230" width="169" height="10" rx="5" fill="#DDE1E6"/>
<rect y="276" width="360" height="80" rx="8" fill="white"/>
<rect x="24" y="300" width="18" height="12" rx="6" fill="#C1C7CD"/>
<rect x="48" y="300" width="174" height="12" rx="6" fill="#C1C7CD"/>
<rect x="24" y="322" width="169" height="10" rx="5" fill="#DDE1E6"/>
</g>
<defs>
<filter id="filter0_d" x="-34" y="-26" width="428" height="148" filterUnits="userSpaceOnUse" color-interpolation-filters="sRGB">
<feFlood flood-opacity="0" result="BackgroundImageFix"/>
<feColorMatrix in="SourceAlpha" type="matrix" values="0 0 0 0 0 0 0 0 0 0 0 0 0 0 0 0 0 0 127 0"/>
<feMorphology radius="4" operator="erode" in="SourceAlpha" result="effect1_dropShadow"/>
<feOffset dy="8"/>
<feGaussianBlur stdDeviation="19"/>
<feColorMatrix type="matrix" values="0 0 0 0 0.129412 0 0 0 0 0.152941 0 0 0 0 0.164706 0 0 0 0.1 0"/>
<feBlend mode="normal" in2="BackgroundImageFix" result="effect1_dropShadow"/>
<feBlend mode="normal" in="SourceGraphic" in2="effect1_dropShadow" result="shape"/>
</filter>
<linearGradient id="paint0_linear" x1="180" y1="162.5" x2="180" y2="360" gradientUnits="userSpaceOnUse">
<stop stop-color="#C4C4C4"/>
<stop offset="1" stop-color="#C4C4C4" stop-opacity="0"/>
</linearGradient>
</defs>
</svg>
