<svg width="24" height="24" viewBox="0 0 24 24" fill="none" xmlns="http://www.w3.org/2000/svg">
<path d="M13 18.9291V20H16V22H8V20H11V18.9291C7.60771 18.4439 5 15.5265 5 12H7C7 14.7614 9.23858 17 12 17C14.7614 17 17 14.7614 17 12H19C19 15.5265 16.3923 18.4439 13 18.9291ZM12 2C13.6569 2 15 3.34315 15 5V13C15 14.6569 13.6569 16 12 16C10.3431 16 9 14.6569 9 13V5C9 3.34315 10.3431 2 12 2ZM12 4C11.4477 4 11 4.44772 11 5V13C11 13.5523 11.4477 14 12 14C12.5523 14 13 13.5523 13 13V5C13 4.44772 12.5523 4 12 4Z" fill="white"/>
</svg>
