<svg width="18" height="18" viewBox="0 0 18 18" fill="none" xmlns="http://www.w3.org/2000/svg">
<path d="M11.7 8.0925C12.4275 7.59 12.9375 6.765 12.9375 6C12.9375 4.305 11.625 3 9.9375 3H5.25V13.5H10.53C12.0975 13.5 13.3125 12.225 13.3125 10.6575C13.3125 9.5175 12.6675 8.5425 11.7 8.0925ZM7.5 4.875H9.75C10.3725 4.875 10.875 5.3775 10.875 6C10.875 6.6225 10.3725 7.125 9.75 7.125H7.5V4.875ZM10.125 11.625H7.5V9.375H10.125C10.7475 9.375 11.25 9.8775 11.25 10.5C11.25 11.1225 10.7475 11.625 10.125 11.625Z" fill="#697077"/>
</svg>
