<svg width="24" height="24" viewBox="0 0 24 24" fill="none" xmlns="http://www.w3.org/2000/svg">
<path fill-rule="evenodd" clip-rule="evenodd" d="M16.336 5.22281C15.8577 5.22248 15.3844 5.31609 14.9433 5.49791C14.5023 5.67972 14.1027 5.94598 13.7671 6.28073L13.7465 6.30124L12.0649 7.88384L10.4158 6.24568L10.3797 6.20577C10.0482 5.83902 9.64416 5.54251 9.19176 5.33509C8.73933 5.12767 8.24851 5.01391 7.74943 5.0012C7.25035 4.98849 6.75419 5.0771 6.29146 5.2613C5.82876 5.44549 5.40969 5.72118 5.05952 6.07077C4.70938 6.42034 4.43548 6.83643 4.25388 7.29322C4.07228 7.74997 3.98659 8.23827 4.0017 8.72838C4.01681 9.21849 4.13244 9.7008 4.34195 10.1459C4.55146 10.591 4.85066 10.9899 5.22194 11.3178L5.26749 11.358L12.1053 18.1781L18.9317 11.3968C19.4421 10.8907 19.7886 10.2473 19.9294 9.54854C20.0702 8.84991 19.9995 8.12536 19.7257 7.46585C19.4519 6.8062 18.9865 6.23982 18.3863 5.83978C17.7865 5.44001 17.0796 5.22482 16.3548 5.22281H16.336ZM16.3573 3.22281C17.4752 3.2253 18.5672 3.55684 19.4955 4.17556C20.4238 4.79428 21.1467 5.67242 21.5729 6.69906C21.9991 7.7257 22.1094 8.85477 21.89 9.94367C21.6705 11.0326 21.1311 12.0324 20.3399 12.817L12.1025 20.9999L3.89814 12.817C3.32304 12.3091 2.85831 11.6901 2.53239 10.9977C2.20647 10.3052 2.02621 9.55404 2.00265 8.79003C1.97909 8.02601 2.11273 7.26526 2.39537 6.55433C2.67802 5.84339 3.10374 5.19724 3.64647 4.6554C4.1892 4.11356 4.83752 3.68744 5.55177 3.40312C6.26601 3.1188 7.03115 2.98225 7.80036 3.00185C8.56956 3.02144 9.32665 3.19675 10.0253 3.51706C10.7239 3.83737 11.3494 4.29594 11.8635 4.86469L12.1024 5.10207L12.3547 4.86469C12.8769 4.34384 13.4976 3.93065 14.181 3.64888C14.8645 3.3671 15.5973 3.22231 16.3373 3.22281H16.3573Z" fill="#697077"/>
</svg>
