<svg width="36" height="36" viewBox="0 0 36 36" fill="none" xmlns="http://www.w3.org/2000/svg">
<g opacity="0.4">
<path d="M6 13.5V27H30V13.5H24.3179L22.9679 9H13.0321L11.6821 13.5H6ZM9.45 10.5L10.8 6H25.2L26.55 10.5H33V30H3V10.5H9.45ZM18 22.5C19.6569 22.5 21 21.1569 21 19.5C21 17.8431 19.6569 16.5 18 16.5C16.3431 16.5 15 17.8431 15 19.5C15 21.1569 16.3431 22.5 18 22.5ZM18 25.5C14.6863 25.5 12 22.8137 12 19.5C12 16.1863 14.6863 13.5 18 13.5C21.3137 13.5 24 16.1863 24 19.5C24 22.8137 21.3137 25.5 18 25.5Z" fill="#697077"/>
</g>
</svg>
