<svg width="69" height="64" viewBox="0 0 69 64" fill="none" xmlns="http://www.w3.org/2000/svg">
<path fill-rule="evenodd" clip-rule="evenodd" d="M4.89568e-06 7.50048L4.50001 -2.47123e-05L9 7.50048L4.89568e-06 7.50048ZM3.67176e-06 21.5005L4.5 14L9 21.5005L3.67176e-06 21.5005ZM15 21.5005L19.5 14L24 21.5005L15 21.5005ZM2.44784e-06 35.5005L4.5 28L9 35.5005L2.44784e-06 35.5005ZM15 35.5005L19.5 28L24 35.5005L15 35.5005ZM30 35.5005L34.5 28L39 35.5005L30 35.5005ZM1.22392e-06 49.5005L4.5 42L9 49.5005L1.22392e-06 49.5005ZM15 49.5005L19.5 42L24 49.5005L15 49.5005ZM30 49.5005L34.5 42L39 49.5005L30 49.5005ZM45 49.5005L49.5 42L54 49.5005L45 49.5005ZM0 63.5005L4.5 56L9 63.5005L0 63.5005ZM15 63.5005L19.5 56L24 63.5005L15 63.5005ZM30 63.5005L34.5 56L39 63.5005L30 63.5005ZM45 63.5005L49.5 56L54 63.5005L45 63.5005ZM60 63.5005L64.5 56L69 63.5005L60 63.5005Z" fill="#4F7FFF" fill-opacity="0.2"/>
</svg>
